%TF.GenerationSoftware,KiCad,Pcbnew,10.99.0-588-gebb07fc77d*%
%TF.CreationDate,2026-10-07T22:21:37+11:00*%
%TF.ProjectId,garage-door,67617261-6765-42d6-946f-6f722e6b6963,rev?*%
%TF.SameCoordinates,Original*%
%TF.FileFunction,Copper,L1,Top*%
%TF.FilePolarity,Positive*%
%FSLAX46Y46*%
G04 Gerber Fmt 4.6, Leading zero omitted, Abs format (unit mm)*
G04 Created by KiCad (PCBNEW 10.99.0-588-gebb07fc77d) date 2026-10-07 22:21:37*
%MOMM*%
%LPD*%
G01*
G04 APERTURE LIST*
G04 Aperture macros list*
%AMRoundRect*
0 Rectangle with rounded corners*
0 $1 Rounding radius*
0 $2 $3 $4 $5 $6 $7 $8 $9 X,Y pos of 4 corners*
0 Add a 4 corners polygon primitive as box body*
4,1,4,$2,$3,$4,$5,$6,$7,$8,$9,$2,$3,0*
0 Add four circle primitives for the rounded corners*
1,1,$1+$1,$2,$3*
1,1,$1+$1,$4,$5*
1,1,$1+$1,$6,$7*
1,1,$1+$1,$8,$9*
0 Add four rect primitives between the rounded corners*
20,1,$1+$1,$2,$3,$4,$5,0*
20,1,$1+$1,$4,$5,$6,$7,0*
20,1,$1+$1,$6,$7,$8,$9,0*
20,1,$1+$1,$8,$9,$2,$3,0*%
G04 Aperture macros list end*
%TA.AperFunction,SMDPad,CuDef*%
%ADD10RoundRect,0.152400X-1.063600X-0.609600X1.063600X-0.609600X1.063600X0.609600X-1.063600X0.609600X0*%
%TD*%
%TA.AperFunction,ComponentPad*%
%ADD11C,1.524000*%
%TD*%
%TA.AperFunction,SMDPad,CuDef*%
%ADD12RoundRect,0.152400X1.063600X0.609600X-1.063600X0.609600X-1.063600X-0.609600X1.063600X-0.609600X0*%
%TD*%
%TA.AperFunction,ComponentPad*%
%ADD13O,1.200000X1.750000*%
%TD*%
%TA.AperFunction,ComponentPad*%
%ADD14RoundRect,0.250000X-0.350000X-0.625000X0.350000X-0.625000X0.350000X0.625000X-0.350000X0.625000X0*%
%TD*%
%TA.AperFunction,ComponentPad*%
%ADD15C,1.600000*%
%TD*%
%TA.AperFunction,ComponentPad*%
%ADD16RoundRect,0.250000X-0.550000X0.550000X-0.550000X-0.550000X0.550000X-0.550000X0.550000X0.550000X0*%
%TD*%
%TA.AperFunction,Conductor*%
%ADD17C,0.200000*%
%TD*%
G04 APERTURE END LIST*
D10*
%TO.P,U1,14,VBUS_14*%
%TO.N,unconnected-(U1-VBUS-Pad14)*%
X128035000Y-80961320D03*
D11*
%TO.N,unconnected-(U1-VBUS-Pad14)_1*%
X127200000Y-80961320D03*
D10*
%TO.P,U1,13,GND_13*%
%TO.N,GND*%
X128035000Y-83501320D03*
D11*
X127200000Y-83501320D03*
D10*
%TO.P,U1,12,VCC_3V3_12*%
%TO.N,+3V3*%
X128035000Y-86041320D03*
D11*
X127200000Y-86041320D03*
D10*
%TO.P,U1,11,GPIO10/D10/MOSI_11*%
%TO.N,unconnected-(U1-GPIO10{slash}D10{slash}MOSI-Pad11)_1*%
X128035000Y-88581320D03*
D11*
%TO.N,unconnected-(U1-GPIO10{slash}D10{slash}MOSI-Pad11)*%
X127200000Y-88581320D03*
D10*
%TO.P,U1,10,GPIO9/D9/MISO_10*%
%TO.N,unconnected-(U1-GPIO9{slash}D9{slash}MISO-Pad10)_1*%
X128035000Y-91121320D03*
D11*
%TO.N,unconnected-(U1-GPIO9{slash}D9{slash}MISO-Pad10)*%
X127200000Y-91121320D03*
D10*
%TO.P,U1,9,GPIO8/D8/SCK_9*%
%TO.N,unconnected-(U1-GPIO8{slash}D8{slash}SCK-Pad9)*%
X128035000Y-93661320D03*
D11*
%TO.N,unconnected-(U1-GPIO8{slash}D8{slash}SCK-Pad9)_1*%
X127200000Y-93661320D03*
D10*
%TO.P,U1,8,GPIO20/D7/RX_8*%
%TO.N,unconnected-(U1-GPIO20{slash}D7{slash}RX-Pad8)*%
X128035000Y-96201320D03*
D11*
%TO.N,unconnected-(U1-GPIO20{slash}D7{slash}RX-Pad8)_1*%
X127200000Y-96201320D03*
%TO.P,U1,7,GPIO21/D6/TX_7*%
%TO.N,unconnected-(U1-GPIO21{slash}D6{slash}TX-Pad7)_1*%
X111960000Y-96201320D03*
D12*
%TO.N,unconnected-(U1-GPIO21{slash}D6{slash}TX-Pad7)*%
X111125000Y-96201320D03*
D11*
%TO.P,U1,6,GPIO7/D5/SCL_6*%
%TO.N,unconnected-(U1-GPIO7{slash}D5{slash}SCL-Pad6)*%
X111960000Y-93661320D03*
D12*
%TO.N,unconnected-(U1-GPIO7{slash}D5{slash}SCL-Pad6)_1*%
X111125000Y-93661320D03*
D11*
%TO.P,U1,5,GPIO6/D4/SDA_5*%
%TO.N,unconnected-(U1-GPIO6{slash}D4{slash}SDA-Pad5)*%
X111960000Y-91121320D03*
D12*
%TO.N,unconnected-(U1-GPIO6{slash}D4{slash}SDA-Pad5)_1*%
X111125000Y-91121320D03*
D11*
%TO.P,U1,4,GPIO5/A3/D3_4*%
%TO.N,unconnected-(U1-GPIO5{slash}A3{slash}D3-Pad4)*%
X111960000Y-88581320D03*
D12*
%TO.N,unconnected-(U1-GPIO5{slash}A3{slash}D3-Pad4)_1*%
X111125000Y-88581320D03*
D11*
%TO.P,U1,3,GPIO4/A2/D2_3*%
%TO.N,unconnected-(U1-GPIO4{slash}A2{slash}D2-Pad3)*%
X111960000Y-86041320D03*
D12*
%TO.N,unconnected-(U1-GPIO4{slash}A2{slash}D2-Pad3)_1*%
X111125000Y-86041320D03*
D11*
%TO.P,U1,2,GPIO3/A1/D1_2*%
%TO.N,Net-(D2-A)*%
X111960000Y-83501320D03*
D12*
X111125000Y-83501320D03*
D11*
%TO.P,U1,1,GPIO2/A0/D0_1*%
%TO.N,unconnected-(U1-GPIO2{slash}A0{slash}D0-Pad1)_1*%
X111960000Y-80961320D03*
D12*
%TO.N,unconnected-(U1-GPIO2{slash}A0{slash}D0-Pad1)*%
X111125000Y-80961320D03*
%TD*%
D13*
%TO.P,J3,2,Pin_2_2*%
%TO.N,Net-(J3-Pin_2)*%
X120580000Y-124440000D03*
D14*
%TO.P,J3,1,Pin_1_1*%
%TO.N,GND*%
X118580000Y-124440000D03*
%TD*%
D15*
%TO.P,C1,2*%
%TO.N,GND*%
X116801320Y-117961320D03*
%TO.P,C1,1*%
%TO.N,Net-(D2-A)*%
X121801320Y-117961320D03*
%TD*%
D16*
%TO.P,D2,1,K_1*%
%TO.N,+3V3*%
X130411320Y-103361320D03*
D15*
%TO.P,D2,2,A_2*%
%TO.N,Net-(D2-A)*%
X130411320Y-110981320D03*
%TD*%
%TO.P,R6,1*%
%TO.N,Net-(J3-Pin_2)*%
X123371320Y-112441320D03*
%TO.P,R6,2*%
%TO.N,Net-(D2-A)*%
X123371320Y-102281320D03*
%TD*%
D16*
%TO.P,D3,1,K_1*%
%TO.N,Net-(D2-A)*%
X109781320Y-103361320D03*
D15*
%TO.P,D3,2,A_2*%
%TO.N,GND*%
X109781320Y-110981320D03*
%TD*%
%TO.P,R1,1*%
%TO.N,+3V3*%
X116511320Y-112441320D03*
%TO.P,R1,2*%
%TO.N,Net-(D2-A)*%
X116511320Y-102281320D03*
%TD*%
%TO.N,+3V3*%
D17*
X130411320Y-103611320D02*
X124421320Y-97621320D01*
X124421320Y-97621320D02*
X124421320Y-87238680D01*
X124421320Y-87238680D02*
X125618680Y-86041320D01*
X125618680Y-86041320D02*
X127200000Y-86041320D01*
%TO.N,Net-(D2-A)*%
X116511320Y-102341320D02*
X123311320Y-102341320D01*
X130391320Y-111231320D02*
X123661320Y-117961320D01*
X130411320Y-111231320D02*
X130391320Y-111231320D01*
X123371320Y-104191320D02*
X130411320Y-111231320D01*
X123371320Y-102281320D02*
X123371320Y-104191320D01*
X123311320Y-102341320D02*
X123371320Y-102281320D01*
X123661320Y-117961320D02*
X121801320Y-117961320D01*
X110801320Y-102341320D02*
X109781320Y-103361320D01*
X112201320Y-83121320D02*
X116511320Y-87431320D01*
X116511320Y-102341320D02*
X110801320Y-102341320D01*
X116511320Y-87431320D02*
X116511320Y-102341320D01*
%TO.N,GND*%
X116761320Y-117961320D02*
X116801320Y-117961320D01*
%TD*%
%TA.AperFunction,Conductor*%
%TO.N,GND*%
G36*
X135995056Y-78142046D02*
G01*
X136285116Y-78159591D01*
X136299979Y-78161396D01*
X136582117Y-78213100D01*
X136596654Y-78216683D01*
X136870502Y-78302018D01*
X136884483Y-78307320D01*
X137146054Y-78425044D01*
X137159307Y-78432000D01*
X137404778Y-78580391D01*
X137417096Y-78588893D01*
X137642893Y-78765794D01*
X137654101Y-78775724D01*
X137856915Y-78978538D01*
X137866845Y-78989746D01*
X138043742Y-79215537D01*
X138052248Y-79227861D01*
X138200639Y-79473332D01*
X138207597Y-79486589D01*
X138325139Y-79747756D01*
X138325314Y-79748143D01*
X138330624Y-79762145D01*
X138415955Y-80035984D01*
X138419539Y-80050522D01*
X138471243Y-80332660D01*
X138473048Y-80347525D01*
X138490588Y-80637486D01*
X138490814Y-80645133D01*
X138433375Y-125130478D01*
X138433063Y-125139112D01*
X138432312Y-125149664D01*
X138423568Y-125185220D01*
X138424928Y-125251098D01*
X138424698Y-125256748D01*
X138424696Y-125256785D01*
X138413156Y-125541058D01*
X138411614Y-125556150D01*
X138365757Y-125834990D01*
X138362385Y-125849780D01*
X138282818Y-126120951D01*
X138277664Y-126135219D01*
X138165586Y-126394629D01*
X138158729Y-126408161D01*
X138015800Y-126651964D01*
X138007341Y-126664558D01*
X137835728Y-126889061D01*
X137825795Y-126900527D01*
X137628040Y-127102405D01*
X137616781Y-127112572D01*
X137395855Y-127288791D01*
X137383439Y-127297508D01*
X137142652Y-127445427D01*
X137129265Y-127452562D01*
X136872213Y-127569974D01*
X136858054Y-127575421D01*
X136588588Y-127660564D01*
X136573870Y-127664241D01*
X136296031Y-127715841D01*
X136280974Y-127717694D01*
X135995106Y-127735214D01*
X135994308Y-127735260D01*
X135990915Y-127735446D01*
X135925428Y-127735446D01*
X135908584Y-127739958D01*
X135895723Y-127740664D01*
X135893805Y-127740213D01*
X135888974Y-127740850D01*
X103945083Y-127750650D01*
X103937559Y-127750424D01*
X103653572Y-127733247D01*
X103638706Y-127731442D01*
X103362527Y-127680830D01*
X103347989Y-127677246D01*
X103079941Y-127593719D01*
X103065940Y-127588410D01*
X102809896Y-127473174D01*
X102796637Y-127466215D01*
X102556358Y-127320962D01*
X102544034Y-127312455D01*
X102323012Y-127139294D01*
X102311805Y-127129365D01*
X102113274Y-126930834D01*
X102103345Y-126919627D01*
X101992627Y-126778307D01*
X101930181Y-126698601D01*
X101921681Y-126686287D01*
X101776423Y-126446001D01*
X101769465Y-126432743D01*
X101656215Y-126181112D01*
X101654227Y-126176695D01*
X101648920Y-126162698D01*
X101642063Y-126140694D01*
X101565392Y-125894649D01*
X101561809Y-125880112D01*
X101511197Y-125603933D01*
X101509392Y-125589068D01*
X101499308Y-125422368D01*
X101492213Y-125305066D01*
X101491987Y-125297726D01*
X101491987Y-125235428D01*
X101491913Y-125235152D01*
X101491868Y-125195033D01*
X102590820Y-125195033D01*
X102590820Y-125407607D01*
X102595790Y-125438988D01*
X102620746Y-125596555D01*
X102624074Y-125617563D01*
X102684815Y-125804505D01*
X102689764Y-125819734D01*
X102786271Y-126009140D01*
X102911210Y-126181106D01*
X103061533Y-126331429D01*
X103233499Y-126456368D01*
X103233501Y-126456369D01*
X103233504Y-126456371D01*
X103422908Y-126552877D01*
X103625077Y-126618566D01*
X103835033Y-126651820D01*
X103835034Y-126651820D01*
X104047606Y-126651820D01*
X104047607Y-126651820D01*
X104257563Y-126618566D01*
X104459732Y-126552877D01*
X104649136Y-126456371D01*
X104715492Y-126408161D01*
X104821106Y-126331429D01*
X104821108Y-126331426D01*
X104821112Y-126331424D01*
X104971424Y-126181112D01*
X104971426Y-126181108D01*
X104971429Y-126181106D01*
X105096368Y-126009140D01*
X105096367Y-126009140D01*
X105096371Y-126009136D01*
X105192877Y-125819732D01*
X105258566Y-125617563D01*
X105291820Y-125407607D01*
X105291820Y-125195033D01*
X105258566Y-124985077D01*
X105192877Y-124782908D01*
X105171053Y-124740075D01*
X105148053Y-124694934D01*
X105148052Y-124694933D01*
X105132138Y-124663702D01*
X105096371Y-124593504D01*
X105088343Y-124582454D01*
X104971429Y-124421533D01*
X104821106Y-124271210D01*
X104649140Y-124146271D01*
X104459734Y-124049764D01*
X104459733Y-124049763D01*
X104459732Y-124049763D01*
X104257563Y-123984074D01*
X104257561Y-123984073D01*
X104257560Y-123984073D01*
X104096277Y-123958528D01*
X104047607Y-123950820D01*
X103835033Y-123950820D01*
X103786362Y-123958528D01*
X103625080Y-123984073D01*
X103422905Y-124049764D01*
X103233499Y-124146271D01*
X103061533Y-124271210D01*
X102911210Y-124421533D01*
X102786271Y-124593499D01*
X102689764Y-124782905D01*
X102624073Y-124985080D01*
X102599677Y-125139112D01*
X102590820Y-125195033D01*
X101491868Y-125195033D01*
X101490262Y-123765013D01*
X117480000Y-123765013D01*
X117480000Y-124190000D01*
X118299670Y-124190000D01*
X118279925Y-124209745D01*
X118230556Y-124295255D01*
X118205000Y-124390630D01*
X118205000Y-124489370D01*
X118230556Y-124584745D01*
X118279925Y-124670255D01*
X118299670Y-124690000D01*
X117480001Y-124690000D01*
X117480001Y-125114986D01*
X117490494Y-125217697D01*
X117545641Y-125384119D01*
X117545643Y-125384124D01*
X117637684Y-125533345D01*
X117761654Y-125657315D01*
X117910875Y-125749356D01*
X117910880Y-125749358D01*
X118077302Y-125804505D01*
X118077309Y-125804506D01*
X118180019Y-125814999D01*
X118329999Y-125814999D01*
X118330000Y-125814998D01*
X118330000Y-124720330D01*
X118349745Y-124740075D01*
X118435255Y-124789444D01*
X118530630Y-124815000D01*
X118629370Y-124815000D01*
X118724745Y-124789444D01*
X118810255Y-124740075D01*
X118830000Y-124720330D01*
X118830000Y-125814999D01*
X118979972Y-125814999D01*
X118979986Y-125814998D01*
X119082697Y-125804505D01*
X119249119Y-125749358D01*
X119249124Y-125749356D01*
X119398345Y-125657315D01*
X119522315Y-125533345D01*
X119561945Y-125469094D01*
X119613893Y-125422368D01*
X119682855Y-125411145D01*
X119746937Y-125438988D01*
X119755166Y-125446508D01*
X119863072Y-125554414D01*
X120003212Y-125656232D01*
X120157555Y-125734873D01*
X120322299Y-125788402D01*
X120493389Y-125815500D01*
X120493390Y-125815500D01*
X120666610Y-125815500D01*
X120666611Y-125815500D01*
X120837701Y-125788402D01*
X121002445Y-125734873D01*
X121156788Y-125656232D01*
X121296928Y-125554414D01*
X121419414Y-125431928D01*
X121521232Y-125291788D01*
X121570531Y-125195033D01*
X134640820Y-125195033D01*
X134640820Y-125407607D01*
X134645790Y-125438988D01*
X134670746Y-125596555D01*
X134674074Y-125617563D01*
X134734815Y-125804505D01*
X134739764Y-125819734D01*
X134836271Y-126009140D01*
X134961210Y-126181106D01*
X135111533Y-126331429D01*
X135283499Y-126456368D01*
X135283501Y-126456369D01*
X135283504Y-126456371D01*
X135472908Y-126552877D01*
X135675077Y-126618566D01*
X135885033Y-126651820D01*
X135885034Y-126651820D01*
X136097606Y-126651820D01*
X136097607Y-126651820D01*
X136307563Y-126618566D01*
X136509732Y-126552877D01*
X136699136Y-126456371D01*
X136765492Y-126408161D01*
X136871106Y-126331429D01*
X136871108Y-126331426D01*
X136871112Y-126331424D01*
X137021424Y-126181112D01*
X137021426Y-126181108D01*
X137021429Y-126181106D01*
X137146368Y-126009140D01*
X137146367Y-126009140D01*
X137146371Y-126009136D01*
X137242877Y-125819732D01*
X137308566Y-125617563D01*
X137341820Y-125407607D01*
X137341820Y-125195033D01*
X137308566Y-124985077D01*
X137242877Y-124782908D01*
X137146371Y-124593504D01*
X137146369Y-124593501D01*
X137146368Y-124593499D01*
X137021429Y-124421533D01*
X136871106Y-124271210D01*
X136699140Y-124146271D01*
X136509734Y-124049764D01*
X136509733Y-124049763D01*
X136509732Y-124049763D01*
X136307563Y-123984074D01*
X136307561Y-123984073D01*
X136307560Y-123984073D01*
X136146277Y-123958528D01*
X136097607Y-123950820D01*
X135885033Y-123950820D01*
X135836362Y-123958528D01*
X135675080Y-123984073D01*
X135472905Y-124049764D01*
X135283499Y-124146271D01*
X135111533Y-124271210D01*
X134961210Y-124421533D01*
X134836271Y-124593499D01*
X134739764Y-124782905D01*
X134674073Y-124985080D01*
X134649677Y-125139112D01*
X134640820Y-125195033D01*
X121570531Y-125195033D01*
X121599873Y-125137445D01*
X121653402Y-124972701D01*
X121680500Y-124801611D01*
X121680500Y-124078389D01*
X121653402Y-123907299D01*
X121599873Y-123742555D01*
X121521232Y-123588212D01*
X121419414Y-123448072D01*
X121296928Y-123325586D01*
X121156788Y-123223768D01*
X121002445Y-123145127D01*
X120837701Y-123091598D01*
X120837699Y-123091597D01*
X120837698Y-123091597D01*
X120706271Y-123070781D01*
X120666611Y-123064500D01*
X120493389Y-123064500D01*
X120453728Y-123070781D01*
X120322302Y-123091597D01*
X120157552Y-123145128D01*
X120003211Y-123223768D01*
X119863073Y-123325585D01*
X119755166Y-123433492D01*
X119693843Y-123466976D01*
X119624151Y-123461992D01*
X119568218Y-123420120D01*
X119561946Y-123410906D01*
X119522317Y-123346656D01*
X119398345Y-123222684D01*
X119249124Y-123130643D01*
X119249119Y-123130641D01*
X119082697Y-123075494D01*
X119082690Y-123075493D01*
X118979986Y-123065000D01*
X118830000Y-123065000D01*
X118830000Y-124159670D01*
X118810255Y-124139925D01*
X118724745Y-124090556D01*
X118629370Y-124065000D01*
X118530630Y-124065000D01*
X118435255Y-124090556D01*
X118349745Y-124139925D01*
X118330000Y-124159670D01*
X118330000Y-123065000D01*
X118180027Y-123065000D01*
X118180012Y-123065001D01*
X118077302Y-123075494D01*
X117910880Y-123130641D01*
X117910875Y-123130643D01*
X117761654Y-123222684D01*
X117637684Y-123346654D01*
X117545643Y-123495875D01*
X117545641Y-123495880D01*
X117490494Y-123662302D01*
X117490493Y-123662309D01*
X117480000Y-123765013D01*
X101490262Y-123765013D01*
X101485203Y-119261820D01*
X101484902Y-118993674D01*
X101483627Y-117859002D01*
X115501320Y-117859002D01*
X115501320Y-118063637D01*
X115533329Y-118265737D01*
X115596564Y-118460351D01*
X115689461Y-118642670D01*
X115689467Y-118642679D01*
X115721843Y-118687241D01*
X115721844Y-118687242D01*
X116401320Y-118007766D01*
X116401320Y-118013981D01*
X116428579Y-118115714D01*
X116481240Y-118206926D01*
X116555714Y-118281400D01*
X116646926Y-118334061D01*
X116748659Y-118361320D01*
X116754873Y-118361320D01*
X116075396Y-119040794D01*
X116119970Y-119073179D01*
X116302288Y-119166075D01*
X116496902Y-119229310D01*
X116699003Y-119261320D01*
X116903637Y-119261320D01*
X117105737Y-119229310D01*
X117300351Y-119166075D01*
X117482669Y-119073179D01*
X117527241Y-119040794D01*
X116847767Y-118361320D01*
X116853981Y-118361320D01*
X116955714Y-118334061D01*
X117046926Y-118281400D01*
X117121400Y-118206926D01*
X117174061Y-118115714D01*
X117201320Y-118013981D01*
X117201320Y-118007767D01*
X117880794Y-118687241D01*
X117913179Y-118642669D01*
X118006075Y-118460351D01*
X118069310Y-118265737D01*
X118101320Y-118063637D01*
X118101320Y-117859002D01*
X118069310Y-117656902D01*
X118006075Y-117462288D01*
X117913179Y-117279970D01*
X117880794Y-117235397D01*
X117880794Y-117235396D01*
X117201320Y-117914871D01*
X117201320Y-117908659D01*
X117174061Y-117806926D01*
X117121400Y-117715714D01*
X117046926Y-117641240D01*
X116955714Y-117588579D01*
X116853981Y-117561320D01*
X116847766Y-117561320D01*
X117527242Y-116881844D01*
X117527241Y-116881843D01*
X117482679Y-116849467D01*
X117482670Y-116849461D01*
X117300351Y-116756564D01*
X117105737Y-116693329D01*
X116903637Y-116661320D01*
X116699003Y-116661320D01*
X116496902Y-116693329D01*
X116302288Y-116756564D01*
X116119964Y-116849463D01*
X116075397Y-116881843D01*
X116075397Y-116881844D01*
X116754874Y-117561320D01*
X116748659Y-117561320D01*
X116646926Y-117588579D01*
X116555714Y-117641240D01*
X116481240Y-117715714D01*
X116428579Y-117806926D01*
X116401320Y-117908659D01*
X116401320Y-117914873D01*
X115721844Y-117235397D01*
X115721843Y-117235397D01*
X115689463Y-117279964D01*
X115596564Y-117462288D01*
X115533329Y-117656902D01*
X115501320Y-117859002D01*
X101483627Y-117859002D01*
X101483622Y-117854275D01*
X101482583Y-116929242D01*
X101477656Y-112543671D01*
X101477426Y-112338968D01*
X115210820Y-112338968D01*
X115210820Y-112543671D01*
X115242842Y-112745854D01*
X115306101Y-112940543D01*
X115399035Y-113122933D01*
X115519348Y-113288533D01*
X115664106Y-113433291D01*
X115819069Y-113545876D01*
X115829710Y-113553607D01*
X115945927Y-113612823D01*
X116012096Y-113646538D01*
X116012098Y-113646538D01*
X116012101Y-113646540D01*
X116116457Y-113680447D01*
X116206785Y-113709797D01*
X116307877Y-113725808D01*
X116408968Y-113741820D01*
X116408969Y-113741820D01*
X116613671Y-113741820D01*
X116613672Y-113741820D01*
X116815854Y-113709797D01*
X117010539Y-113646540D01*
X117192930Y-113553607D01*
X117285910Y-113486052D01*
X117358533Y-113433291D01*
X117358535Y-113433288D01*
X117358539Y-113433286D01*
X117503286Y-113288539D01*
X117503288Y-113288535D01*
X117503291Y-113288533D01*
X117556052Y-113215910D01*
X117623607Y-113122930D01*
X117716540Y-112940539D01*
X117779797Y-112745854D01*
X117811820Y-112543672D01*
X117811820Y-112338968D01*
X122070820Y-112338968D01*
X122070820Y-112543671D01*
X122102842Y-112745854D01*
X122166101Y-112940543D01*
X122259035Y-113122933D01*
X122379348Y-113288533D01*
X122524106Y-113433291D01*
X122679069Y-113545876D01*
X122689710Y-113553607D01*
X122805927Y-113612823D01*
X122872096Y-113646538D01*
X122872098Y-113646538D01*
X122872101Y-113646540D01*
X122976457Y-113680447D01*
X123066785Y-113709797D01*
X123167877Y-113725808D01*
X123268968Y-113741820D01*
X123268969Y-113741820D01*
X123473671Y-113741820D01*
X123473672Y-113741820D01*
X123675854Y-113709797D01*
X123870539Y-113646540D01*
X124052930Y-113553607D01*
X124145910Y-113486052D01*
X124218533Y-113433291D01*
X124218535Y-113433288D01*
X124218539Y-113433286D01*
X124363286Y-113288539D01*
X124363288Y-113288535D01*
X124363291Y-113288533D01*
X124416052Y-113215910D01*
X124483607Y-113122930D01*
X124576540Y-112940539D01*
X124639797Y-112745854D01*
X124671820Y-112543672D01*
X124671820Y-112338968D01*
X124667269Y-112310236D01*
X124639797Y-112136785D01*
X124586674Y-111973291D01*
X124576540Y-111942101D01*
X124576538Y-111942098D01*
X124576538Y-111942096D01*
X124518674Y-111828533D01*
X124483607Y-111759710D01*
X124445487Y-111707242D01*
X124363291Y-111594106D01*
X124218533Y-111449348D01*
X124052933Y-111329035D01*
X124052932Y-111329034D01*
X124052930Y-111329033D01*
X123995973Y-111300011D01*
X123870543Y-111236101D01*
X123675854Y-111172842D01*
X123501315Y-111145198D01*
X123473672Y-111140820D01*
X123268968Y-111140820D01*
X123244649Y-111144671D01*
X123066785Y-111172842D01*
X122872096Y-111236101D01*
X122689706Y-111329035D01*
X122524106Y-111449348D01*
X122379348Y-111594106D01*
X122259035Y-111759706D01*
X122166101Y-111942096D01*
X122102842Y-112136785D01*
X122070820Y-112338968D01*
X117811820Y-112338968D01*
X117807269Y-112310236D01*
X117779797Y-112136785D01*
X117726674Y-111973291D01*
X117716540Y-111942101D01*
X117716538Y-111942098D01*
X117716538Y-111942096D01*
X117658674Y-111828533D01*
X117623607Y-111759710D01*
X117585487Y-111707242D01*
X117503291Y-111594106D01*
X117358533Y-111449348D01*
X117192933Y-111329035D01*
X117192932Y-111329034D01*
X117192930Y-111329033D01*
X117135973Y-111300011D01*
X117010543Y-111236101D01*
X116815854Y-111172842D01*
X116641315Y-111145198D01*
X116613672Y-111140820D01*
X116408968Y-111140820D01*
X116384649Y-111144671D01*
X116206785Y-111172842D01*
X116012096Y-111236101D01*
X115829706Y-111329035D01*
X115664106Y-111449348D01*
X115519348Y-111594106D01*
X115399035Y-111759706D01*
X115306101Y-111942096D01*
X115242842Y-112136785D01*
X115210820Y-112338968D01*
X101477426Y-112338968D01*
X101475786Y-110879002D01*
X108481320Y-110879002D01*
X108481320Y-111083637D01*
X108513329Y-111285737D01*
X108576564Y-111480351D01*
X108669461Y-111662670D01*
X108669467Y-111662679D01*
X108701843Y-111707241D01*
X108701844Y-111707242D01*
X109381320Y-111027766D01*
X109381320Y-111033981D01*
X109408579Y-111135714D01*
X109461240Y-111226926D01*
X109535714Y-111301400D01*
X109626926Y-111354061D01*
X109728659Y-111381320D01*
X109734873Y-111381320D01*
X109055396Y-112060794D01*
X109099970Y-112093179D01*
X109282288Y-112186075D01*
X109476902Y-112249310D01*
X109679003Y-112281320D01*
X109883637Y-112281320D01*
X110085737Y-112249310D01*
X110187746Y-112216165D01*
X110280351Y-112186075D01*
X110462669Y-112093179D01*
X110507241Y-112060794D01*
X109827767Y-111381320D01*
X109833981Y-111381320D01*
X109935714Y-111354061D01*
X110026926Y-111301400D01*
X110101400Y-111226926D01*
X110154061Y-111135714D01*
X110181320Y-111033981D01*
X110181320Y-111027767D01*
X110860794Y-111707241D01*
X110893179Y-111662669D01*
X110986075Y-111480351D01*
X111049310Y-111285737D01*
X111081320Y-111083637D01*
X111081320Y-110879002D01*
X111049310Y-110676902D01*
X110986075Y-110482288D01*
X110893179Y-110299970D01*
X110860794Y-110255397D01*
X110860794Y-110255396D01*
X110181320Y-110934871D01*
X110181320Y-110928659D01*
X110154061Y-110826926D01*
X110101400Y-110735714D01*
X110026926Y-110661240D01*
X109935714Y-110608579D01*
X109833981Y-110581320D01*
X109827766Y-110581320D01*
X110507242Y-109901844D01*
X110507241Y-109901843D01*
X110462679Y-109869467D01*
X110462670Y-109869461D01*
X110280351Y-109776564D01*
X110085737Y-109713329D01*
X109883637Y-109681320D01*
X109679003Y-109681320D01*
X109476902Y-109713329D01*
X109282288Y-109776564D01*
X109099964Y-109869463D01*
X109055397Y-109901843D01*
X109055397Y-109901844D01*
X109734874Y-110581320D01*
X109728659Y-110581320D01*
X109626926Y-110608579D01*
X109535714Y-110661240D01*
X109461240Y-110735714D01*
X109408579Y-110826926D01*
X109381320Y-110928659D01*
X109381320Y-110934873D01*
X108701844Y-110255397D01*
X108701843Y-110255397D01*
X108669463Y-110299964D01*
X108576564Y-110482288D01*
X108513329Y-110676902D01*
X108481320Y-110879002D01*
X101475786Y-110879002D01*
X101466667Y-102761303D01*
X108480820Y-102761303D01*
X108480820Y-103961321D01*
X108480821Y-103961338D01*
X108491320Y-104064116D01*
X108491321Y-104064119D01*
X108507275Y-104112263D01*
X108546506Y-104230654D01*
X108638608Y-104379976D01*
X108762664Y-104504032D01*
X108911986Y-104596134D01*
X109078523Y-104651319D01*
X109181311Y-104661820D01*
X110381328Y-104661819D01*
X110484117Y-104651319D01*
X110650654Y-104596134D01*
X110799976Y-104504032D01*
X110924032Y-104379976D01*
X111016134Y-104230654D01*
X111071319Y-104064117D01*
X111081820Y-103961329D01*
X111081819Y-103065819D01*
X111101503Y-102998781D01*
X111154307Y-102953026D01*
X111205819Y-102941820D01*
X115320515Y-102941820D01*
X115387554Y-102961505D01*
X115420832Y-102992934D01*
X115453504Y-103037904D01*
X115519350Y-103128535D01*
X115664106Y-103273291D01*
X115819069Y-103385876D01*
X115829710Y-103393607D01*
X115910819Y-103434934D01*
X116012096Y-103486538D01*
X116012098Y-103486538D01*
X116012101Y-103486540D01*
X116087138Y-103510921D01*
X116206785Y-103549797D01*
X116307877Y-103565808D01*
X116408968Y-103581820D01*
X116408969Y-103581820D01*
X116613671Y-103581820D01*
X116613672Y-103581820D01*
X116815854Y-103549797D01*
X117010539Y-103486540D01*
X117192930Y-103393607D01*
X117285910Y-103326052D01*
X117358533Y-103273291D01*
X117358535Y-103273288D01*
X117358539Y-103273286D01*
X117503286Y-103128539D01*
X117601807Y-102992935D01*
X117657136Y-102950269D01*
X117702125Y-102941820D01*
X122180515Y-102941820D01*
X122247554Y-102961505D01*
X122280832Y-102992934D01*
X122313504Y-103037904D01*
X122379350Y-103128535D01*
X122379354Y-103128539D01*
X122524101Y-103273286D01*
X122689710Y-103393607D01*
X122703113Y-103400436D01*
X122753909Y-103448408D01*
X122770820Y-103510921D01*
X122770820Y-104104650D01*
X122770819Y-104104668D01*
X122770819Y-104270374D01*
X122770818Y-104270374D01*
X122811743Y-104423105D01*
X122840678Y-104473220D01*
X122840679Y-104473224D01*
X122840680Y-104473224D01*
X122890799Y-104560034D01*
X122890801Y-104560037D01*
X123009669Y-104678905D01*
X123009675Y-104678910D01*
X129079667Y-110748902D01*
X129113152Y-110810225D01*
X129114460Y-110855977D01*
X129110820Y-110878963D01*
X129110820Y-111083671D01*
X129142843Y-111285855D01*
X129142843Y-111285858D01*
X129203896Y-111473758D01*
X129205891Y-111543599D01*
X129173646Y-111599757D01*
X123448904Y-117324501D01*
X123387581Y-117357986D01*
X123361223Y-117360820D01*
X123030922Y-117360820D01*
X122963883Y-117341135D01*
X122920437Y-117293115D01*
X122913604Y-117279705D01*
X122793291Y-117114106D01*
X122648533Y-116969348D01*
X122482933Y-116849035D01*
X122482932Y-116849034D01*
X122482930Y-116849033D01*
X122425973Y-116820011D01*
X122300543Y-116756101D01*
X122105854Y-116692842D01*
X121931315Y-116665198D01*
X121903672Y-116660820D01*
X121698968Y-116660820D01*
X121674649Y-116664671D01*
X121496785Y-116692842D01*
X121302096Y-116756101D01*
X121119706Y-116849035D01*
X120954106Y-116969348D01*
X120809348Y-117114106D01*
X120689035Y-117279706D01*
X120596101Y-117462096D01*
X120532842Y-117656785D01*
X120500820Y-117858968D01*
X120500820Y-118063671D01*
X120532842Y-118265854D01*
X120596101Y-118460543D01*
X120647705Y-118561820D01*
X120688905Y-118642679D01*
X120689035Y-118642933D01*
X120809348Y-118808533D01*
X120954106Y-118953291D01*
X121074546Y-119040794D01*
X121119710Y-119073607D01*
X121235927Y-119132823D01*
X121302096Y-119166538D01*
X121302098Y-119166538D01*
X121302101Y-119166540D01*
X121406457Y-119200447D01*
X121496785Y-119229797D01*
X121597877Y-119245808D01*
X121698968Y-119261820D01*
X121698969Y-119261820D01*
X121903671Y-119261820D01*
X121903672Y-119261820D01*
X122105854Y-119229797D01*
X122300539Y-119166540D01*
X122482930Y-119073607D01*
X122592949Y-118993674D01*
X122648533Y-118953291D01*
X122648535Y-118953288D01*
X122648539Y-118953286D01*
X122793286Y-118808539D01*
X122793288Y-118808535D01*
X122793291Y-118808533D01*
X122913604Y-118642934D01*
X122913605Y-118642933D01*
X122913607Y-118642930D01*
X122920437Y-118629524D01*
X122968411Y-118578729D01*
X123030922Y-118561820D01*
X123574651Y-118561820D01*
X123574667Y-118561821D01*
X123582263Y-118561821D01*
X123740374Y-118561821D01*
X123740377Y-118561821D01*
X123893105Y-118520897D01*
X123943224Y-118491959D01*
X124030036Y-118441840D01*
X124141840Y-118330036D01*
X124141840Y-118330034D01*
X124152048Y-118319827D01*
X124152050Y-118319824D01*
X130161639Y-112310234D01*
X130222960Y-112276751D01*
X130268715Y-112275444D01*
X130308968Y-112281820D01*
X130308970Y-112281820D01*
X130513671Y-112281820D01*
X130513672Y-112281820D01*
X130715854Y-112249797D01*
X130910539Y-112186540D01*
X131092930Y-112093607D01*
X131202949Y-112013674D01*
X131258533Y-111973291D01*
X131258535Y-111973288D01*
X131258539Y-111973286D01*
X131403286Y-111828539D01*
X131403288Y-111828535D01*
X131403291Y-111828533D01*
X131456052Y-111755910D01*
X131523607Y-111662930D01*
X131616540Y-111480539D01*
X131679797Y-111285854D01*
X131711820Y-111083672D01*
X131711820Y-110878968D01*
X131700932Y-110810225D01*
X131679797Y-110676785D01*
X131648778Y-110581320D01*
X131616540Y-110482101D01*
X131616538Y-110482098D01*
X131616538Y-110482096D01*
X131523739Y-110299970D01*
X131523607Y-110299710D01*
X131491412Y-110255397D01*
X131403291Y-110134106D01*
X131258533Y-109989348D01*
X131092933Y-109869035D01*
X131092932Y-109869034D01*
X131092930Y-109869033D01*
X131035973Y-109840011D01*
X130910543Y-109776101D01*
X130715854Y-109712842D01*
X130541315Y-109685198D01*
X130513672Y-109680820D01*
X130308968Y-109680820D01*
X130241574Y-109691494D01*
X130106784Y-109712843D01*
X130106781Y-109712843D01*
X129907468Y-109777605D01*
X129907050Y-109776319D01*
X129843682Y-109783133D01*
X129781203Y-109751857D01*
X129778019Y-109748784D01*
X124008139Y-103978904D01*
X123974654Y-103917581D01*
X123971820Y-103891223D01*
X123971820Y-103510921D01*
X123991505Y-103443882D01*
X124039526Y-103400436D01*
X124052930Y-103393607D01*
X124218539Y-103273286D01*
X124363286Y-103128539D01*
X124363288Y-103128535D01*
X124363291Y-103128533D01*
X124416052Y-103055910D01*
X124483607Y-102962930D01*
X124576540Y-102780539D01*
X124639797Y-102585854D01*
X124671820Y-102383672D01*
X124671820Y-102178968D01*
X124639797Y-101976786D01*
X124576540Y-101782101D01*
X124576538Y-101782098D01*
X124576538Y-101782096D01*
X124542823Y-101715927D01*
X124483607Y-101599710D01*
X124475876Y-101589069D01*
X124363291Y-101434106D01*
X124218533Y-101289348D01*
X124052933Y-101169035D01*
X124052932Y-101169034D01*
X124052930Y-101169033D01*
X123995973Y-101140011D01*
X123870543Y-101076101D01*
X123675854Y-101012842D01*
X123501315Y-100985198D01*
X123473672Y-100980820D01*
X123268968Y-100980820D01*
X123244649Y-100984671D01*
X123066785Y-101012842D01*
X122872096Y-101076101D01*
X122689706Y-101169035D01*
X122524106Y-101289348D01*
X122379348Y-101434106D01*
X122259035Y-101599706D01*
X122221631Y-101673115D01*
X122173656Y-101723911D01*
X122111146Y-101740820D01*
X117771494Y-101740820D01*
X117704455Y-101721135D01*
X117661009Y-101673115D01*
X117650921Y-101653317D01*
X117623607Y-101599710D01*
X117615876Y-101589069D01*
X117503291Y-101434106D01*
X117358533Y-101289348D01*
X117192930Y-101169032D01*
X117179520Y-101162199D01*
X117128726Y-101114223D01*
X117111820Y-101051717D01*
X117111820Y-97700374D01*
X123820818Y-97700374D01*
X123861743Y-97853105D01*
X123890678Y-97903220D01*
X123890679Y-97903224D01*
X123890680Y-97903224D01*
X123940799Y-97990034D01*
X123940801Y-97990037D01*
X124059669Y-98108905D01*
X124059675Y-98108910D01*
X129074501Y-103123736D01*
X129107986Y-103185059D01*
X129110820Y-103211417D01*
X129110820Y-103961321D01*
X129110821Y-103961339D01*
X129121320Y-104064116D01*
X129121321Y-104064119D01*
X129137275Y-104112263D01*
X129176506Y-104230654D01*
X129268608Y-104379976D01*
X129392664Y-104504032D01*
X129541986Y-104596134D01*
X129708523Y-104651319D01*
X129811311Y-104661820D01*
X131011328Y-104661819D01*
X131114117Y-104651319D01*
X131280654Y-104596134D01*
X131429976Y-104504032D01*
X131554032Y-104379976D01*
X131646134Y-104230654D01*
X131701319Y-104064117D01*
X131711820Y-103961329D01*
X131711819Y-102761312D01*
X131701319Y-102658523D01*
X131646134Y-102491986D01*
X131554032Y-102342664D01*
X131429976Y-102218608D01*
X131280654Y-102126506D01*
X131114117Y-102071321D01*
X131114115Y-102071320D01*
X131011330Y-102060820D01*
X129811319Y-102060820D01*
X129811293Y-102060822D01*
X129778054Y-102064217D01*
X129709362Y-102051446D01*
X129677775Y-102028540D01*
X125058139Y-97408904D01*
X125024654Y-97347581D01*
X125021820Y-97321223D01*
X125021820Y-87538777D01*
X125041505Y-87471738D01*
X125058139Y-87451096D01*
X125831097Y-86678139D01*
X125858024Y-86663435D01*
X125883843Y-86646843D01*
X125890043Y-86645951D01*
X125892420Y-86644654D01*
X125918778Y-86641820D01*
X126013270Y-86641820D01*
X126080309Y-86661505D01*
X126117191Y-86699186D01*
X126117349Y-86699072D01*
X126118127Y-86700143D01*
X126119000Y-86701035D01*
X126120210Y-86703010D01*
X126130268Y-86716854D01*
X126237019Y-86863784D01*
X126237021Y-86863786D01*
X126377539Y-87004304D01*
X126457060Y-87062078D01*
X126463824Y-87067359D01*
X126467998Y-87070857D01*
X126568053Y-87170912D01*
X126633737Y-87209757D01*
X126641522Y-87216282D01*
X126655488Y-87237246D01*
X126672679Y-87255658D01*
X126674528Y-87265826D01*
X126680260Y-87274430D01*
X126680674Y-87299617D01*
X126685182Y-87324399D01*
X126681239Y-87333954D01*
X126681410Y-87344290D01*
X126668143Y-87365701D01*
X126658536Y-87388989D01*
X126648122Y-87398012D01*
X126644609Y-87403683D01*
X126637871Y-87406895D01*
X126624996Y-87418052D01*
X126568053Y-87451728D01*
X126568046Y-87451733D01*
X126471854Y-87547924D01*
X126457061Y-87560559D01*
X126377536Y-87618338D01*
X126237021Y-87758853D01*
X126120213Y-87919625D01*
X126029994Y-88096687D01*
X126029993Y-88096690D01*
X125968587Y-88285682D01*
X125937500Y-88481959D01*
X125937500Y-88680680D01*
X125968587Y-88876957D01*
X126029993Y-89065949D01*
X126029994Y-89065952D01*
X126120213Y-89243014D01*
X126237019Y-89403784D01*
X126237021Y-89403786D01*
X126377539Y-89544304D01*
X126457060Y-89602078D01*
X126463824Y-89607359D01*
X126467998Y-89610857D01*
X126568053Y-89710912D01*
X126633737Y-89749757D01*
X126641522Y-89756282D01*
X126655488Y-89777246D01*
X126672679Y-89795658D01*
X126674528Y-89805826D01*
X126680260Y-89814430D01*
X126680674Y-89839617D01*
X126685182Y-89864399D01*
X126681239Y-89873954D01*
X126681410Y-89884290D01*
X126668143Y-89905701D01*
X126658536Y-89928989D01*
X126648122Y-89938012D01*
X126644609Y-89943683D01*
X126637871Y-89946895D01*
X126624996Y-89958052D01*
X126568053Y-89991728D01*
X126568046Y-89991733D01*
X126471854Y-90087924D01*
X126457061Y-90100559D01*
X126377536Y-90158338D01*
X126237021Y-90298853D01*
X126120213Y-90459625D01*
X126029994Y-90636687D01*
X126029993Y-90636690D01*
X125968587Y-90825682D01*
X125937500Y-91021959D01*
X125937500Y-91220680D01*
X125968587Y-91416957D01*
X126029993Y-91605949D01*
X126029994Y-91605952D01*
X126120213Y-91783014D01*
X126237019Y-91943784D01*
X126237021Y-91943786D01*
X126377539Y-92084304D01*
X126457060Y-92142078D01*
X126463824Y-92147359D01*
X126467998Y-92150857D01*
X126568053Y-92250912D01*
X126633737Y-92289757D01*
X126641522Y-92296282D01*
X126655488Y-92317246D01*
X126672679Y-92335658D01*
X126674528Y-92345826D01*
X126680260Y-92354430D01*
X126680674Y-92379617D01*
X126685182Y-92404399D01*
X126681239Y-92413954D01*
X126681410Y-92424290D01*
X126668143Y-92445701D01*
X126658536Y-92468989D01*
X126648122Y-92478012D01*
X126644609Y-92483683D01*
X126637871Y-92486895D01*
X126624996Y-92498052D01*
X126568053Y-92531728D01*
X126568046Y-92531733D01*
X126471854Y-92627924D01*
X126457061Y-92640559D01*
X126377536Y-92698338D01*
X126237021Y-92838853D01*
X126120213Y-92999625D01*
X126029994Y-93176687D01*
X126029993Y-93176690D01*
X125968587Y-93365682D01*
X125937500Y-93561959D01*
X125937500Y-93760680D01*
X125968587Y-93956957D01*
X126029993Y-94145949D01*
X126029994Y-94145952D01*
X126120213Y-94323014D01*
X126237019Y-94483784D01*
X126237021Y-94483786D01*
X126377539Y-94624304D01*
X126457060Y-94682078D01*
X126463824Y-94687359D01*
X126467998Y-94690857D01*
X126568053Y-94790912D01*
X126633737Y-94829757D01*
X126641522Y-94836282D01*
X126655488Y-94857246D01*
X126672679Y-94875658D01*
X126674528Y-94885826D01*
X126680260Y-94894430D01*
X126680674Y-94919617D01*
X126685182Y-94944399D01*
X126681239Y-94953954D01*
X126681410Y-94964290D01*
X126668143Y-94985701D01*
X126658536Y-95008989D01*
X126648122Y-95018012D01*
X126644609Y-95023683D01*
X126637871Y-95026895D01*
X126624996Y-95038052D01*
X126568053Y-95071728D01*
X126568046Y-95071733D01*
X126471854Y-95167924D01*
X126457061Y-95180559D01*
X126377536Y-95238338D01*
X126237021Y-95378853D01*
X126120213Y-95539625D01*
X126029994Y-95716687D01*
X126029993Y-95716690D01*
X125968587Y-95905682D01*
X125937500Y-96101959D01*
X125937500Y-96300680D01*
X125968587Y-96496957D01*
X126029993Y-96685949D01*
X126029994Y-96685952D01*
X126120213Y-96863014D01*
X126237019Y-97023784D01*
X126237021Y-97023786D01*
X126377539Y-97164304D01*
X126457060Y-97222078D01*
X126471851Y-97234710D01*
X126568053Y-97330912D01*
X126568054Y-97330913D01*
X126568056Y-97330914D01*
X126607287Y-97354115D01*
X126710041Y-97414884D01*
X126751816Y-97427021D01*
X126868447Y-97460906D01*
X126868450Y-97460906D01*
X126868452Y-97460907D01*
X126905466Y-97463820D01*
X126905474Y-97463820D01*
X129164526Y-97463820D01*
X129164534Y-97463820D01*
X129201548Y-97460907D01*
X129201550Y-97460906D01*
X129201552Y-97460906D01*
X129243323Y-97448769D01*
X129359959Y-97414884D01*
X129501947Y-97330912D01*
X129618592Y-97214267D01*
X129702564Y-97072279D01*
X129748587Y-96913868D01*
X129751500Y-96876854D01*
X129751500Y-95525786D01*
X129748587Y-95488772D01*
X129702564Y-95330361D01*
X129618592Y-95188373D01*
X129618590Y-95188371D01*
X129618587Y-95188367D01*
X129501952Y-95071732D01*
X129501944Y-95071726D01*
X129445004Y-95038052D01*
X129397321Y-94986983D01*
X129384817Y-94918241D01*
X129411462Y-94853652D01*
X129445004Y-94824588D01*
X129501947Y-94790912D01*
X129618592Y-94674267D01*
X129702564Y-94532279D01*
X129748587Y-94373868D01*
X129751500Y-94336854D01*
X129751500Y-92985786D01*
X129748587Y-92948772D01*
X129702564Y-92790361D01*
X129618592Y-92648373D01*
X129618590Y-92648371D01*
X129618587Y-92648367D01*
X129501952Y-92531732D01*
X129501944Y-92531726D01*
X129445004Y-92498052D01*
X129397321Y-92446983D01*
X129384817Y-92378241D01*
X129411462Y-92313652D01*
X129445004Y-92284588D01*
X129501947Y-92250912D01*
X129618592Y-92134267D01*
X129702564Y-91992279D01*
X129748587Y-91833868D01*
X129751500Y-91796854D01*
X129751500Y-90445786D01*
X129748587Y-90408772D01*
X129702564Y-90250361D01*
X129618592Y-90108373D01*
X129618590Y-90108371D01*
X129618587Y-90108367D01*
X129501952Y-89991732D01*
X129501944Y-89991726D01*
X129445004Y-89958052D01*
X129397321Y-89906983D01*
X129384817Y-89838241D01*
X129411462Y-89773652D01*
X129445004Y-89744588D01*
X129501947Y-89710912D01*
X129618592Y-89594267D01*
X129702564Y-89452279D01*
X129748587Y-89293868D01*
X129751500Y-89256854D01*
X129751500Y-87905786D01*
X129748587Y-87868772D01*
X129702564Y-87710361D01*
X129618592Y-87568373D01*
X129618590Y-87568371D01*
X129618587Y-87568367D01*
X129501952Y-87451732D01*
X129501944Y-87451726D01*
X129445004Y-87418052D01*
X129397321Y-87366983D01*
X129384817Y-87298241D01*
X129411462Y-87233652D01*
X129445004Y-87204588D01*
X129501947Y-87170912D01*
X129618592Y-87054267D01*
X129702564Y-86912279D01*
X129748587Y-86753868D01*
X129751500Y-86716854D01*
X129751500Y-85365786D01*
X129748587Y-85328772D01*
X129702564Y-85170361D01*
X129618592Y-85028373D01*
X129618590Y-85028371D01*
X129618587Y-85028367D01*
X129501952Y-84911732D01*
X129501949Y-84911730D01*
X129501947Y-84911728D01*
X129444511Y-84877760D01*
X129396829Y-84826691D01*
X129384326Y-84757950D01*
X129410972Y-84693360D01*
X129444514Y-84664296D01*
X129501637Y-84630513D01*
X129501643Y-84630509D01*
X129618189Y-84513963D01*
X129618196Y-84513954D01*
X129702102Y-84372076D01*
X129702103Y-84372073D01*
X129748088Y-84213793D01*
X129748089Y-84213787D01*
X129750999Y-84176808D01*
X129750999Y-82825850D01*
X129750998Y-82825828D01*
X129748089Y-82788853D01*
X129702102Y-82630562D01*
X129618196Y-82488685D01*
X129618189Y-82488676D01*
X129501643Y-82372130D01*
X129501634Y-82372123D01*
X129444513Y-82338342D01*
X129396829Y-82287273D01*
X129384326Y-82218531D01*
X129410972Y-82153942D01*
X129444514Y-82124878D01*
X129501941Y-82090916D01*
X129501942Y-82090914D01*
X129501947Y-82090912D01*
X129618592Y-81974267D01*
X129702564Y-81832279D01*
X129748587Y-81673868D01*
X129751500Y-81636854D01*
X129751500Y-80535033D01*
X134640820Y-80535033D01*
X134640820Y-80747607D01*
X134674074Y-80957563D01*
X134707579Y-81060681D01*
X134739764Y-81159734D01*
X134836271Y-81349140D01*
X134961210Y-81521106D01*
X135111533Y-81671429D01*
X135283499Y-81796368D01*
X135283501Y-81796369D01*
X135283504Y-81796371D01*
X135472908Y-81892877D01*
X135675077Y-81958566D01*
X135885033Y-81991820D01*
X135885034Y-81991820D01*
X136097606Y-81991820D01*
X136097607Y-81991820D01*
X136307563Y-81958566D01*
X136509732Y-81892877D01*
X136699136Y-81796371D01*
X136867743Y-81673872D01*
X136871106Y-81671429D01*
X136871108Y-81671426D01*
X136871112Y-81671424D01*
X137021424Y-81521112D01*
X137021426Y-81521108D01*
X137021429Y-81521106D01*
X137146368Y-81349140D01*
X137146367Y-81349140D01*
X137146371Y-81349136D01*
X137242877Y-81159732D01*
X137308566Y-80957563D01*
X137341820Y-80747607D01*
X137341820Y-80535033D01*
X137308566Y-80325077D01*
X137242877Y-80122908D01*
X137146371Y-79933504D01*
X137146369Y-79933501D01*
X137146368Y-79933499D01*
X137021429Y-79761533D01*
X136871106Y-79611210D01*
X136699140Y-79486271D01*
X136509734Y-79389764D01*
X136509733Y-79389763D01*
X136509732Y-79389763D01*
X136307563Y-79324074D01*
X136307561Y-79324073D01*
X136307560Y-79324073D01*
X136146277Y-79298528D01*
X136097607Y-79290820D01*
X135885033Y-79290820D01*
X135836362Y-79298528D01*
X135675080Y-79324073D01*
X135472905Y-79389764D01*
X135283499Y-79486271D01*
X135111533Y-79611210D01*
X134961210Y-79761533D01*
X134836271Y-79933499D01*
X134739764Y-80122905D01*
X134674073Y-80325080D01*
X134651223Y-80469351D01*
X134640820Y-80535033D01*
X129751500Y-80535033D01*
X129751500Y-80285786D01*
X129748587Y-80248772D01*
X129702564Y-80090361D01*
X129618592Y-79948373D01*
X129618590Y-79948371D01*
X129618587Y-79948367D01*
X129501952Y-79831732D01*
X129501943Y-79831725D01*
X129359957Y-79747755D01*
X129359954Y-79747754D01*
X129201552Y-79701733D01*
X129201546Y-79701732D01*
X129164541Y-79698820D01*
X129164534Y-79698820D01*
X126905466Y-79698820D01*
X126905458Y-79698820D01*
X126868453Y-79701732D01*
X126868447Y-79701733D01*
X126710045Y-79747754D01*
X126710042Y-79747755D01*
X126568056Y-79831725D01*
X126568046Y-79831733D01*
X126471854Y-79927924D01*
X126457061Y-79940559D01*
X126377536Y-79998338D01*
X126237021Y-80138853D01*
X126120213Y-80299625D01*
X126029994Y-80476687D01*
X126029993Y-80476690D01*
X125968587Y-80665682D01*
X125937500Y-80861959D01*
X125937500Y-81060680D01*
X125968587Y-81256957D01*
X126029993Y-81445949D01*
X126029994Y-81445952D01*
X126068291Y-81521112D01*
X126120213Y-81623014D01*
X126237019Y-81783784D01*
X126237021Y-81783786D01*
X126377539Y-81924304D01*
X126457060Y-81982078D01*
X126463786Y-81987327D01*
X126467979Y-81990838D01*
X126568053Y-82090912D01*
X126634208Y-82130036D01*
X126641975Y-82136540D01*
X126655962Y-82157517D01*
X126673170Y-82175947D01*
X126675015Y-82186093D01*
X126680736Y-82194673D01*
X126681161Y-82219884D01*
X126685673Y-82244689D01*
X126681740Y-82254220D01*
X126681915Y-82264532D01*
X126668643Y-82285969D01*
X126659028Y-82309278D01*
X126648643Y-82318276D01*
X126645137Y-82323940D01*
X126638391Y-82327158D01*
X126625487Y-82338341D01*
X126568370Y-82372120D01*
X126568357Y-82372130D01*
X126496360Y-82444126D01*
X126496360Y-82444127D01*
X127115905Y-83063672D01*
X127028429Y-83087112D01*
X126927070Y-83145631D01*
X126844311Y-83228390D01*
X126785792Y-83329749D01*
X126762352Y-83417225D01*
X126147730Y-82802602D01*
X126147729Y-82802603D01*
X126120643Y-82839884D01*
X126030457Y-83016882D01*
X125969075Y-83205796D01*
X125969075Y-83205799D01*
X125938000Y-83401998D01*
X125938000Y-83600641D01*
X125969075Y-83796840D01*
X125969075Y-83796843D01*
X126030457Y-83985757D01*
X126120641Y-84162752D01*
X126147730Y-84200035D01*
X126147731Y-84200036D01*
X126762352Y-83585414D01*
X126785792Y-83672891D01*
X126844311Y-83774250D01*
X126927070Y-83857009D01*
X127028429Y-83915528D01*
X127115904Y-83938967D01*
X126496360Y-84558511D01*
X126568360Y-84630512D01*
X126568364Y-84630515D01*
X126625486Y-84664297D01*
X126673169Y-84715366D01*
X126685673Y-84784108D01*
X126659028Y-84848697D01*
X126641975Y-84866099D01*
X126634204Y-84872605D01*
X126568053Y-84911728D01*
X126467990Y-85011789D01*
X126463784Y-85015312D01*
X126462598Y-85015829D01*
X126457061Y-85020559D01*
X126377536Y-85078338D01*
X126237021Y-85218853D01*
X126120210Y-85379629D01*
X126119000Y-85381605D01*
X126118343Y-85382198D01*
X126117349Y-85383568D01*
X126117061Y-85383359D01*
X126067190Y-85428483D01*
X126013270Y-85440820D01*
X125705350Y-85440820D01*
X125705334Y-85440819D01*
X125697738Y-85440819D01*
X125539623Y-85440819D01*
X125463259Y-85461281D01*
X125386894Y-85481743D01*
X125386889Y-85481746D01*
X125249970Y-85560795D01*
X125249962Y-85560801D01*
X123940801Y-86869962D01*
X123940797Y-86869967D01*
X123916373Y-86912274D01*
X123916370Y-86912279D01*
X123861743Y-87006895D01*
X123820819Y-87159623D01*
X123820819Y-87317737D01*
X123820819Y-87317739D01*
X123820820Y-87327733D01*
X123820820Y-97534650D01*
X123820819Y-97534668D01*
X123820819Y-97700374D01*
X123820818Y-97700374D01*
X117111820Y-97700374D01*
X117111820Y-87352265D01*
X117111820Y-87352263D01*
X117070897Y-87199536D01*
X117054371Y-87170911D01*
X116991844Y-87062610D01*
X116991841Y-87062606D01*
X116991840Y-87062604D01*
X116880036Y-86950800D01*
X116880035Y-86950799D01*
X116875705Y-86946469D01*
X116875694Y-86946459D01*
X113230534Y-83301299D01*
X113197049Y-83239976D01*
X113195742Y-83233016D01*
X113194711Y-83226514D01*
X113191413Y-83205684D01*
X113130005Y-83016688D01*
X113130005Y-83016687D01*
X113039786Y-82839625D01*
X113029762Y-82825828D01*
X112922981Y-82678856D01*
X112782464Y-82538339D01*
X112702938Y-82480560D01*
X112696175Y-82475280D01*
X112692000Y-82471781D01*
X112591947Y-82371728D01*
X112526259Y-82332880D01*
X112518477Y-82326358D01*
X112504510Y-82305393D01*
X112487321Y-82286983D01*
X112485471Y-82276812D01*
X112479740Y-82268210D01*
X112479324Y-82243022D01*
X112474817Y-82218241D01*
X112478758Y-82208686D01*
X112478588Y-82198350D01*
X112491856Y-82176936D01*
X112501462Y-82153652D01*
X112511874Y-82144629D01*
X112515389Y-82138958D01*
X112522127Y-82135745D01*
X112535004Y-82124588D01*
X112591947Y-82090912D01*
X112688148Y-81994709D01*
X112702939Y-81982078D01*
X112782464Y-81924301D01*
X112922981Y-81783784D01*
X113039787Y-81623014D01*
X113130005Y-81445952D01*
X113191413Y-81256956D01*
X113222500Y-81060681D01*
X113222500Y-80861959D01*
X113191413Y-80665684D01*
X113130005Y-80476688D01*
X113130005Y-80476687D01*
X113064193Y-80347525D01*
X113039787Y-80299626D01*
X112922981Y-80138856D01*
X112782464Y-79998339D01*
X112702937Y-79940559D01*
X112688147Y-79927928D01*
X112591947Y-79831728D01*
X112591946Y-79831727D01*
X112591943Y-79831725D01*
X112449957Y-79747755D01*
X112449954Y-79747754D01*
X112291552Y-79701733D01*
X112291546Y-79701732D01*
X112254541Y-79698820D01*
X112254534Y-79698820D01*
X109995466Y-79698820D01*
X109995458Y-79698820D01*
X109958453Y-79701732D01*
X109958447Y-79701733D01*
X109800045Y-79747754D01*
X109800042Y-79747755D01*
X109658056Y-79831725D01*
X109658047Y-79831732D01*
X109541412Y-79948367D01*
X109541405Y-79948376D01*
X109457435Y-80090362D01*
X109457434Y-80090365D01*
X109411413Y-80248767D01*
X109411412Y-80248773D01*
X109408500Y-80285778D01*
X109408500Y-81636861D01*
X109411412Y-81673866D01*
X109411413Y-81673872D01*
X109457434Y-81832274D01*
X109457435Y-81832277D01*
X109541405Y-81974263D01*
X109541412Y-81974272D01*
X109658047Y-82090907D01*
X109658050Y-82090909D01*
X109658053Y-82090912D01*
X109714996Y-82124588D01*
X109762679Y-82175658D01*
X109775182Y-82244399D01*
X109748536Y-82308989D01*
X109714996Y-82338051D01*
X109658053Y-82371728D01*
X109658047Y-82371732D01*
X109541412Y-82488367D01*
X109541405Y-82488376D01*
X109457435Y-82630362D01*
X109457434Y-82630365D01*
X109411413Y-82788767D01*
X109411412Y-82788773D01*
X109408500Y-82825778D01*
X109408500Y-84176861D01*
X109411412Y-84213866D01*
X109411413Y-84213872D01*
X109457434Y-84372274D01*
X109457435Y-84372277D01*
X109541405Y-84514263D01*
X109541412Y-84514272D01*
X109658047Y-84630907D01*
X109658049Y-84630908D01*
X109658053Y-84630912D01*
X109714502Y-84664296D01*
X109714996Y-84664588D01*
X109762679Y-84715658D01*
X109775182Y-84784399D01*
X109748536Y-84848989D01*
X109714996Y-84878052D01*
X109658053Y-84911728D01*
X109658047Y-84911732D01*
X109541412Y-85028367D01*
X109541405Y-85028376D01*
X109457435Y-85170362D01*
X109457434Y-85170365D01*
X109411413Y-85328767D01*
X109411412Y-85328773D01*
X109408500Y-85365778D01*
X109408500Y-86716861D01*
X109411412Y-86753866D01*
X109411413Y-86753872D01*
X109457434Y-86912274D01*
X109457435Y-86912277D01*
X109541405Y-87054263D01*
X109541412Y-87054272D01*
X109658047Y-87170907D01*
X109658050Y-87170909D01*
X109658053Y-87170912D01*
X109714996Y-87204588D01*
X109762679Y-87255658D01*
X109775182Y-87324399D01*
X109748536Y-87388989D01*
X109714996Y-87418052D01*
X109658053Y-87451728D01*
X109658047Y-87451732D01*
X109541412Y-87568367D01*
X109541405Y-87568376D01*
X109457435Y-87710362D01*
X109457434Y-87710365D01*
X109411413Y-87868767D01*
X109411412Y-87868773D01*
X109408500Y-87905778D01*
X109408500Y-89256861D01*
X109411412Y-89293866D01*
X109411413Y-89293872D01*
X109457434Y-89452274D01*
X109457435Y-89452277D01*
X109541405Y-89594263D01*
X109541412Y-89594272D01*
X109658047Y-89710907D01*
X109658050Y-89710909D01*
X109658053Y-89710912D01*
X109714996Y-89744588D01*
X109762679Y-89795658D01*
X109775182Y-89864399D01*
X109748536Y-89928989D01*
X109714996Y-89958052D01*
X109658053Y-89991728D01*
X109658047Y-89991732D01*
X109541412Y-90108367D01*
X109541405Y-90108376D01*
X109457435Y-90250362D01*
X109457434Y-90250365D01*
X109411413Y-90408767D01*
X109411412Y-90408773D01*
X109408500Y-90445778D01*
X109408500Y-91796861D01*
X109411412Y-91833866D01*
X109411413Y-91833872D01*
X109457434Y-91992274D01*
X109457435Y-91992277D01*
X109541405Y-92134263D01*
X109541412Y-92134272D01*
X109658047Y-92250907D01*
X109658050Y-92250909D01*
X109658053Y-92250912D01*
X109714996Y-92284588D01*
X109762679Y-92335658D01*
X109775182Y-92404399D01*
X109748536Y-92468989D01*
X109714996Y-92498052D01*
X109658053Y-92531728D01*
X109658047Y-92531732D01*
X109541412Y-92648367D01*
X109541405Y-92648376D01*
X109457435Y-92790362D01*
X109457434Y-92790365D01*
X109411413Y-92948767D01*
X109411412Y-92948773D01*
X109408500Y-92985778D01*
X109408500Y-94336861D01*
X109411412Y-94373866D01*
X109411413Y-94373872D01*
X109457434Y-94532274D01*
X109457435Y-94532277D01*
X109541405Y-94674263D01*
X109541412Y-94674272D01*
X109658047Y-94790907D01*
X109658050Y-94790909D01*
X109658053Y-94790912D01*
X109714996Y-94824588D01*
X109762679Y-94875658D01*
X109775182Y-94944399D01*
X109748536Y-95008989D01*
X109714996Y-95038052D01*
X109658053Y-95071728D01*
X109658047Y-95071732D01*
X109541412Y-95188367D01*
X109541405Y-95188376D01*
X109457435Y-95330362D01*
X109457434Y-95330365D01*
X109411413Y-95488767D01*
X109411412Y-95488773D01*
X109408500Y-95525778D01*
X109408500Y-96876861D01*
X109411412Y-96913866D01*
X109411413Y-96913872D01*
X109457434Y-97072274D01*
X109457435Y-97072277D01*
X109541405Y-97214263D01*
X109541412Y-97214272D01*
X109658047Y-97330907D01*
X109658056Y-97330914D01*
X109697287Y-97354115D01*
X109800041Y-97414884D01*
X109841816Y-97427021D01*
X109958447Y-97460906D01*
X109958450Y-97460906D01*
X109958452Y-97460907D01*
X109995466Y-97463820D01*
X109995474Y-97463820D01*
X112254526Y-97463820D01*
X112254534Y-97463820D01*
X112291548Y-97460907D01*
X112291550Y-97460906D01*
X112291552Y-97460906D01*
X112333323Y-97448769D01*
X112449959Y-97414884D01*
X112591947Y-97330912D01*
X112688148Y-97234709D01*
X112702939Y-97222078D01*
X112782464Y-97164301D01*
X112922981Y-97023784D01*
X113039787Y-96863014D01*
X113130005Y-96685952D01*
X113191413Y-96496956D01*
X113222500Y-96300681D01*
X113222500Y-96101959D01*
X113191413Y-95905684D01*
X113130005Y-95716688D01*
X113130005Y-95716687D01*
X113039786Y-95539625D01*
X112922981Y-95378856D01*
X112782464Y-95238339D01*
X112702937Y-95180559D01*
X112696175Y-95175280D01*
X112692000Y-95171781D01*
X112591947Y-95071728D01*
X112526259Y-95032880D01*
X112518477Y-95026358D01*
X112504510Y-95005393D01*
X112487321Y-94986983D01*
X112485471Y-94976812D01*
X112479740Y-94968210D01*
X112479324Y-94943022D01*
X112474817Y-94918241D01*
X112478758Y-94908686D01*
X112478588Y-94898350D01*
X112491856Y-94876936D01*
X112501462Y-94853652D01*
X112511874Y-94844629D01*
X112515389Y-94838958D01*
X112522127Y-94835745D01*
X112535004Y-94824588D01*
X112591947Y-94790912D01*
X112688148Y-94694709D01*
X112702939Y-94682078D01*
X112782464Y-94624301D01*
X112922981Y-94483784D01*
X113039787Y-94323014D01*
X113130005Y-94145952D01*
X113191413Y-93956956D01*
X113222500Y-93760681D01*
X113222500Y-93561959D01*
X113191413Y-93365684D01*
X113130005Y-93176688D01*
X113130005Y-93176687D01*
X113039786Y-92999625D01*
X112922981Y-92838856D01*
X112782464Y-92698339D01*
X112702937Y-92640559D01*
X112696175Y-92635280D01*
X112692000Y-92631781D01*
X112591947Y-92531728D01*
X112526259Y-92492880D01*
X112518477Y-92486358D01*
X112504510Y-92465393D01*
X112487321Y-92446983D01*
X112485471Y-92436812D01*
X112479740Y-92428210D01*
X112479324Y-92403022D01*
X112474817Y-92378241D01*
X112478758Y-92368686D01*
X112478588Y-92358350D01*
X112491856Y-92336936D01*
X112501462Y-92313652D01*
X112511874Y-92304629D01*
X112515389Y-92298958D01*
X112522127Y-92295745D01*
X112535004Y-92284588D01*
X112591947Y-92250912D01*
X112688148Y-92154709D01*
X112702939Y-92142078D01*
X112782464Y-92084301D01*
X112922981Y-91943784D01*
X113039787Y-91783014D01*
X113130005Y-91605952D01*
X113191413Y-91416956D01*
X113222500Y-91220681D01*
X113222500Y-91021959D01*
X113191413Y-90825684D01*
X113130005Y-90636688D01*
X113130005Y-90636687D01*
X113039786Y-90459625D01*
X112922981Y-90298856D01*
X112782464Y-90158339D01*
X112702937Y-90100559D01*
X112696175Y-90095280D01*
X112692000Y-90091781D01*
X112591947Y-89991728D01*
X112526259Y-89952880D01*
X112518477Y-89946358D01*
X112504510Y-89925393D01*
X112487321Y-89906983D01*
X112485471Y-89896812D01*
X112479740Y-89888210D01*
X112479324Y-89863022D01*
X112474817Y-89838241D01*
X112478758Y-89828686D01*
X112478588Y-89818350D01*
X112491856Y-89796936D01*
X112501462Y-89773652D01*
X112511874Y-89764629D01*
X112515389Y-89758958D01*
X112522127Y-89755745D01*
X112535004Y-89744588D01*
X112591947Y-89710912D01*
X112688148Y-89614709D01*
X112702939Y-89602078D01*
X112782464Y-89544301D01*
X112922981Y-89403784D01*
X113039787Y-89243014D01*
X113130005Y-89065952D01*
X113191413Y-88876956D01*
X113222500Y-88680681D01*
X113222500Y-88481959D01*
X113191413Y-88285684D01*
X113130005Y-88096688D01*
X113130005Y-88096687D01*
X113039786Y-87919625D01*
X112922981Y-87758856D01*
X112782464Y-87618339D01*
X112702937Y-87560559D01*
X112696175Y-87555280D01*
X112692000Y-87551781D01*
X112591947Y-87451728D01*
X112526259Y-87412880D01*
X112518477Y-87406358D01*
X112504510Y-87385393D01*
X112487321Y-87366983D01*
X112485471Y-87356812D01*
X112479740Y-87348210D01*
X112479324Y-87323022D01*
X112474817Y-87298241D01*
X112478758Y-87288686D01*
X112478588Y-87278350D01*
X112491856Y-87256936D01*
X112501462Y-87233652D01*
X112511874Y-87224629D01*
X112515389Y-87218958D01*
X112522127Y-87215745D01*
X112535004Y-87204588D01*
X112591947Y-87170912D01*
X112688148Y-87074709D01*
X112702939Y-87062078D01*
X112782464Y-87004301D01*
X112922981Y-86863784D01*
X113039787Y-86703014D01*
X113130005Y-86525952D01*
X113191413Y-86336956D01*
X113222500Y-86140681D01*
X113222500Y-85941959D01*
X113191413Y-85745684D01*
X113160709Y-85651186D01*
X113130006Y-85556690D01*
X113130005Y-85556687D01*
X113070967Y-85440820D01*
X113039787Y-85379626D01*
X112922981Y-85218856D01*
X112782464Y-85078339D01*
X112702937Y-85020559D01*
X112696175Y-85015280D01*
X112692000Y-85011781D01*
X112591947Y-84911728D01*
X112526259Y-84872880D01*
X112518477Y-84866358D01*
X112504510Y-84845393D01*
X112487321Y-84826983D01*
X112485471Y-84816812D01*
X112479740Y-84808210D01*
X112479324Y-84783022D01*
X112474817Y-84758241D01*
X112478758Y-84748686D01*
X112478588Y-84738350D01*
X112491856Y-84716936D01*
X112501462Y-84693652D01*
X112511874Y-84684629D01*
X112515389Y-84678958D01*
X112522127Y-84675745D01*
X112535004Y-84664588D01*
X112535498Y-84664296D01*
X112591947Y-84630912D01*
X112639131Y-84583728D01*
X112700454Y-84550243D01*
X112770146Y-84555227D01*
X112814493Y-84583728D01*
X115874501Y-87643736D01*
X115907986Y-87705059D01*
X115910820Y-87731417D01*
X115910820Y-101051717D01*
X115891135Y-101118756D01*
X115843120Y-101162199D01*
X115829709Y-101169032D01*
X115664106Y-101289348D01*
X115519348Y-101434106D01*
X115399035Y-101599706D01*
X115361631Y-101673115D01*
X115313656Y-101723911D01*
X115251146Y-101740820D01*
X110887989Y-101740820D01*
X110887973Y-101740819D01*
X110880377Y-101740819D01*
X110722263Y-101740819D01*
X110642330Y-101762237D01*
X110569536Y-101781742D01*
X110536526Y-101800801D01*
X110536525Y-101800800D01*
X110432607Y-101860797D01*
X110432602Y-101860801D01*
X110320798Y-101972606D01*
X110320797Y-101972607D01*
X110268901Y-102024502D01*
X110207578Y-102057986D01*
X110181221Y-102060820D01*
X109181318Y-102060820D01*
X109181300Y-102060821D01*
X109078523Y-102071320D01*
X109078520Y-102071321D01*
X108911988Y-102126505D01*
X108911983Y-102126507D01*
X108762662Y-102218609D01*
X108638609Y-102342662D01*
X108546507Y-102491983D01*
X108546506Y-102491986D01*
X108491321Y-102658523D01*
X108491321Y-102658524D01*
X108491320Y-102658524D01*
X108480820Y-102761303D01*
X101466667Y-102761303D01*
X101441824Y-80645117D01*
X101442050Y-80637501D01*
X101448249Y-80535033D01*
X102590820Y-80535033D01*
X102590820Y-80747607D01*
X102624074Y-80957563D01*
X102657579Y-81060681D01*
X102689764Y-81159734D01*
X102786271Y-81349140D01*
X102911210Y-81521106D01*
X103061533Y-81671429D01*
X103233499Y-81796368D01*
X103233501Y-81796369D01*
X103233504Y-81796371D01*
X103422908Y-81892877D01*
X103625077Y-81958566D01*
X103835033Y-81991820D01*
X103835034Y-81991820D01*
X104047606Y-81991820D01*
X104047607Y-81991820D01*
X104257563Y-81958566D01*
X104459732Y-81892877D01*
X104649136Y-81796371D01*
X104817743Y-81673872D01*
X104821106Y-81671429D01*
X104821108Y-81671426D01*
X104821112Y-81671424D01*
X104971424Y-81521112D01*
X104971426Y-81521108D01*
X104971429Y-81521106D01*
X105096368Y-81349140D01*
X105096367Y-81349140D01*
X105096371Y-81349136D01*
X105192877Y-81159732D01*
X105258566Y-80957563D01*
X105291820Y-80747607D01*
X105291820Y-80535033D01*
X105258566Y-80325077D01*
X105192877Y-80122908D01*
X105096371Y-79933504D01*
X105096369Y-79933501D01*
X105096368Y-79933499D01*
X104971429Y-79761533D01*
X104821106Y-79611210D01*
X104649140Y-79486271D01*
X104459734Y-79389764D01*
X104459733Y-79389763D01*
X104459732Y-79389763D01*
X104257563Y-79324074D01*
X104257561Y-79324073D01*
X104257560Y-79324073D01*
X104096277Y-79298528D01*
X104047607Y-79290820D01*
X103835033Y-79290820D01*
X103786362Y-79298528D01*
X103625080Y-79324073D01*
X103422905Y-79389764D01*
X103233499Y-79486271D01*
X103061533Y-79611210D01*
X102911210Y-79761533D01*
X102786271Y-79933499D01*
X102689764Y-80122905D01*
X102624073Y-80325080D01*
X102601223Y-80469351D01*
X102590820Y-80535033D01*
X101448249Y-80535033D01*
X101459591Y-80347522D01*
X101461396Y-80332660D01*
X101469988Y-80285778D01*
X101513100Y-80050518D01*
X101516684Y-80035984D01*
X101528415Y-79998338D01*
X101602019Y-79762132D01*
X101607317Y-79748162D01*
X101725047Y-79486578D01*
X101732000Y-79473332D01*
X101822229Y-79324074D01*
X101880395Y-79227854D01*
X101888887Y-79215550D01*
X102065801Y-78989737D01*
X102075716Y-78978546D01*
X102278546Y-78775716D01*
X102289737Y-78765801D01*
X102515550Y-78588887D01*
X102527854Y-78580395D01*
X102773332Y-78432000D01*
X102786578Y-78425047D01*
X103048162Y-78307317D01*
X103062132Y-78302019D01*
X103335988Y-78216682D01*
X103350518Y-78213100D01*
X103632664Y-78161395D01*
X103647521Y-78159591D01*
X103937584Y-78142046D01*
X103945071Y-78141820D01*
X104007212Y-78141820D01*
X135925428Y-78141820D01*
X135987569Y-78141820D01*
X135995056Y-78142046D01*
G37*
%TD.AperFunction*%
%TD*%
M02*
