M48
; DRILL file KiCad 10.99.0-588-gebb07fc77d date 2026-10-07T22:21:44
; FORMAT={-:-/ absolute / metric / decimal}
; #@! TF.CreationDate,2026-10-07T22:21:44+11:00
; #@! TF.GenerationSoftware,Kicad,Pcbnew,10.99.0-588-gebb07fc77d
; #@! TF.FileFunction,Plated,1,2,PTH
FMAT,2
METRIC
; #@! TA.AperFunction,Plated,PTH,ComponentDrill
T1C0.750
; #@! TA.AperFunction,Plated,PTH,ComponentDrill
T2C0.800
; #@! TA.AperFunction,Plated,PTH,ComponentDrill
T3C0.889
%
G90
G05
T1
X118.58Y-124.44
X120.58Y-124.44
T2
X109.781Y-103.361
X109.781Y-110.981
X116.511Y-102.281
X116.511Y-112.441
X116.801Y-117.961
X121.801Y-117.961
X123.371Y-102.281
X123.371Y-112.441
X130.411Y-103.361
X130.411Y-110.981
T3
X111.96Y-80.961
X111.96Y-83.501
X111.96Y-86.041
X111.96Y-88.581
X111.96Y-91.121
X111.96Y-93.661
X111.96Y-96.201
X127.2Y-80.961
X127.2Y-83.501
X127.2Y-86.041
X127.2Y-88.581
X127.2Y-91.121
X127.2Y-93.661
X127.2Y-96.201
M30
