%TF.GenerationSoftware,KiCad,Pcbnew,10.99.0-588-gebb07fc77d*%
%TF.CreationDate,2026-10-07T22:21:37+11:00*%
%TF.ProjectId,garage-door,67617261-6765-42d6-946f-6f722e6b6963,rev?*%
%TF.SameCoordinates,Original*%
%TF.FileFunction,Copper,L2,Bot*%
%TF.FilePolarity,Positive*%
%FSLAX46Y46*%
G04 Gerber Fmt 4.6, Leading zero omitted, Abs format (unit mm)*
G04 Created by KiCad (PCBNEW 10.99.0-588-gebb07fc77d) date 2026-10-07 22:21:37*
%MOMM*%
%LPD*%
G01*
G04 APERTURE LIST*
G04 Aperture macros list*
%AMRoundRect*
0 Rectangle with rounded corners*
0 $1 Rounding radius*
0 $2 $3 $4 $5 $6 $7 $8 $9 X,Y pos of 4 corners*
0 Add a 4 corners polygon primitive as box body*
4,1,4,$2,$3,$4,$5,$6,$7,$8,$9,$2,$3,0*
0 Add four circle primitives for the rounded corners*
1,1,$1+$1,$2,$3*
1,1,$1+$1,$4,$5*
1,1,$1+$1,$6,$7*
1,1,$1+$1,$8,$9*
0 Add four rect primitives between the rounded corners*
20,1,$1+$1,$2,$3,$4,$5,0*
20,1,$1+$1,$4,$5,$6,$7,0*
20,1,$1+$1,$6,$7,$8,$9,0*
20,1,$1+$1,$8,$9,$2,$3,0*%
G04 Aperture macros list end*
%TA.AperFunction,ComponentPad*%
%ADD10C,1.524000*%
%TD*%
%TA.AperFunction,ComponentPad*%
%ADD11O,1.200000X1.750000*%
%TD*%
%TA.AperFunction,ComponentPad*%
%ADD12RoundRect,0.250000X-0.350000X-0.625000X0.350000X-0.625000X0.350000X0.625000X-0.350000X0.625000X0*%
%TD*%
%TA.AperFunction,ComponentPad*%
%ADD13C,1.600000*%
%TD*%
%TA.AperFunction,ComponentPad*%
%ADD14RoundRect,0.250000X-0.550000X0.550000X-0.550000X-0.550000X0.550000X-0.550000X0.550000X0.550000X0*%
%TD*%
%TA.AperFunction,Conductor*%
%ADD15C,0.200000*%
%TD*%
G04 APERTURE END LIST*
D10*
%TO.P,U1,14,VBUS_14*%
%TO.N,unconnected-(U1-VBUS-Pad14)_1*%
X127200000Y-80961320D03*
%TO.P,U1,13,GND_13*%
%TO.N,GND*%
X127200000Y-83501320D03*
%TO.P,U1,12,VCC_3V3_12*%
%TO.N,+3V3*%
X127200000Y-86041320D03*
%TO.P,U1,11,GPIO10/D10/MOSI_11*%
%TO.N,unconnected-(U1-GPIO10{slash}D10{slash}MOSI-Pad11)*%
X127200000Y-88581320D03*
%TO.P,U1,10,GPIO9/D9/MISO_10*%
%TO.N,unconnected-(U1-GPIO9{slash}D9{slash}MISO-Pad10)*%
X127200000Y-91121320D03*
%TO.P,U1,9,GPIO8/D8/SCK_9*%
%TO.N,unconnected-(U1-GPIO8{slash}D8{slash}SCK-Pad9)_1*%
X127200000Y-93661320D03*
%TO.P,U1,8,GPIO20/D7/RX_8*%
%TO.N,unconnected-(U1-GPIO20{slash}D7{slash}RX-Pad8)_1*%
X127200000Y-96201320D03*
%TO.P,U1,7,GPIO21/D6/TX_7*%
%TO.N,unconnected-(U1-GPIO21{slash}D6{slash}TX-Pad7)_1*%
X111960000Y-96201320D03*
%TO.P,U1,6,GPIO7/D5/SCL_6*%
%TO.N,unconnected-(U1-GPIO7{slash}D5{slash}SCL-Pad6)*%
X111960000Y-93661320D03*
%TO.P,U1,5,GPIO6/D4/SDA_5*%
%TO.N,unconnected-(U1-GPIO6{slash}D4{slash}SDA-Pad5)*%
X111960000Y-91121320D03*
%TO.P,U1,4,GPIO5/A3/D3_4*%
%TO.N,unconnected-(U1-GPIO5{slash}A3{slash}D3-Pad4)*%
X111960000Y-88581320D03*
%TO.P,U1,3,GPIO4/A2/D2_3*%
%TO.N,unconnected-(U1-GPIO4{slash}A2{slash}D2-Pad3)*%
X111960000Y-86041320D03*
%TO.P,U1,2,GPIO3/A1/D1_2*%
%TO.N,Net-(D2-A)*%
X111960000Y-83501320D03*
%TO.P,U1,1,GPIO2/A0/D0_1*%
%TO.N,unconnected-(U1-GPIO2{slash}A0{slash}D0-Pad1)_1*%
X111960000Y-80961320D03*
%TD*%
D11*
%TO.P,J3,2,Pin_2_2*%
%TO.N,Net-(J3-Pin_2)*%
X120580000Y-124440000D03*
D12*
%TO.P,J3,1,Pin_1_1*%
%TO.N,GND*%
X118580000Y-124440000D03*
%TD*%
D13*
%TO.P,C1,2*%
%TO.N,GND*%
X116801320Y-117961320D03*
%TO.P,C1,1*%
%TO.N,Net-(D2-A)*%
X121801320Y-117961320D03*
%TD*%
D14*
%TO.P,D2,1,K_1*%
%TO.N,+3V3*%
X130411320Y-103361320D03*
D13*
%TO.P,D2,2,A_2*%
%TO.N,Net-(D2-A)*%
X130411320Y-110981320D03*
%TD*%
%TO.P,R6,1*%
%TO.N,Net-(J3-Pin_2)*%
X123371320Y-112441320D03*
%TO.P,R6,2*%
%TO.N,Net-(D2-A)*%
X123371320Y-102281320D03*
%TD*%
D14*
%TO.P,D3,1,K_1*%
%TO.N,Net-(D2-A)*%
X109781320Y-103361320D03*
D13*
%TO.P,D3,2,A_2*%
%TO.N,GND*%
X109781320Y-110981320D03*
%TD*%
%TO.P,R1,1*%
%TO.N,+3V3*%
X116511320Y-112441320D03*
%TO.P,R1,2*%
%TO.N,Net-(D2-A)*%
X116511320Y-102281320D03*
%TD*%
%TO.N,Net-(J3-Pin_2)*%
D15*
X125950000Y-115020000D02*
X125950000Y-121990000D01*
X123470000Y-124470000D02*
X123440000Y-124440000D01*
X125950000Y-121990000D02*
X123470000Y-124470000D01*
X123371320Y-112441320D02*
X125950000Y-115020000D01*
X123440000Y-124440000D02*
X120580000Y-124440000D01*
%TO.N,+3V3*%
X130411320Y-103611320D02*
X127848680Y-103611320D01*
X127848680Y-103611320D02*
X118958680Y-112501320D01*
X118958680Y-112501320D02*
X116511320Y-112501320D01*
%TD*%
%TA.AperFunction,Conductor*%
%TO.N,GND*%
G36*
X135995056Y-78142046D02*
G01*
X136285116Y-78159591D01*
X136299979Y-78161396D01*
X136582117Y-78213100D01*
X136596654Y-78216683D01*
X136870502Y-78302018D01*
X136884483Y-78307320D01*
X137146054Y-78425044D01*
X137159307Y-78432000D01*
X137404778Y-78580391D01*
X137417096Y-78588893D01*
X137642893Y-78765794D01*
X137654101Y-78775724D01*
X137856915Y-78978538D01*
X137866845Y-78989746D01*
X138043742Y-79215537D01*
X138052248Y-79227861D01*
X138200639Y-79473332D01*
X138207597Y-79486589D01*
X138317106Y-79729907D01*
X138325314Y-79748143D01*
X138330624Y-79762145D01*
X138415955Y-80035984D01*
X138419539Y-80050522D01*
X138471243Y-80332660D01*
X138473048Y-80347525D01*
X138490588Y-80637486D01*
X138490814Y-80645133D01*
X138433375Y-125130478D01*
X138433063Y-125139112D01*
X138432312Y-125149664D01*
X138423568Y-125185220D01*
X138424928Y-125251098D01*
X138424698Y-125256748D01*
X138424696Y-125256785D01*
X138413156Y-125541058D01*
X138411614Y-125556150D01*
X138365757Y-125834990D01*
X138362385Y-125849780D01*
X138282818Y-126120951D01*
X138277664Y-126135219D01*
X138165586Y-126394629D01*
X138158729Y-126408161D01*
X138015800Y-126651964D01*
X138007341Y-126664558D01*
X137835728Y-126889061D01*
X137825795Y-126900527D01*
X137628040Y-127102405D01*
X137616781Y-127112572D01*
X137395855Y-127288791D01*
X137383439Y-127297508D01*
X137142652Y-127445427D01*
X137129265Y-127452562D01*
X136872213Y-127569974D01*
X136858054Y-127575421D01*
X136588588Y-127660564D01*
X136573870Y-127664241D01*
X136296031Y-127715841D01*
X136280974Y-127717694D01*
X135995106Y-127735214D01*
X135994308Y-127735260D01*
X135990915Y-127735446D01*
X135925428Y-127735446D01*
X135908584Y-127739958D01*
X135895723Y-127740664D01*
X135893805Y-127740213D01*
X135888974Y-127740850D01*
X103945083Y-127750650D01*
X103937559Y-127750424D01*
X103653572Y-127733247D01*
X103638706Y-127731442D01*
X103362527Y-127680830D01*
X103347989Y-127677246D01*
X103079941Y-127593719D01*
X103065940Y-127588410D01*
X102809896Y-127473174D01*
X102796637Y-127466215D01*
X102556358Y-127320962D01*
X102544034Y-127312455D01*
X102323012Y-127139294D01*
X102311805Y-127129365D01*
X102113274Y-126930834D01*
X102103345Y-126919627D01*
X101992627Y-126778307D01*
X101930181Y-126698601D01*
X101921681Y-126686287D01*
X101776423Y-126446001D01*
X101769465Y-126432743D01*
X101656215Y-126181112D01*
X101654227Y-126176695D01*
X101648920Y-126162698D01*
X101642063Y-126140694D01*
X101565392Y-125894649D01*
X101561809Y-125880112D01*
X101511197Y-125603933D01*
X101509392Y-125589068D01*
X101499308Y-125422368D01*
X101492213Y-125305066D01*
X101491987Y-125297726D01*
X101491987Y-125235428D01*
X101491913Y-125235152D01*
X101491868Y-125195033D01*
X102590820Y-125195033D01*
X102590820Y-125407607D01*
X102595790Y-125438988D01*
X102620746Y-125596555D01*
X102624074Y-125617563D01*
X102684815Y-125804505D01*
X102689764Y-125819734D01*
X102786271Y-126009140D01*
X102911210Y-126181106D01*
X103061533Y-126331429D01*
X103233499Y-126456368D01*
X103233501Y-126456369D01*
X103233504Y-126456371D01*
X103422908Y-126552877D01*
X103625077Y-126618566D01*
X103835033Y-126651820D01*
X103835034Y-126651820D01*
X104047606Y-126651820D01*
X104047607Y-126651820D01*
X104257563Y-126618566D01*
X104459732Y-126552877D01*
X104649136Y-126456371D01*
X104715492Y-126408161D01*
X104821106Y-126331429D01*
X104821108Y-126331426D01*
X104821112Y-126331424D01*
X104971424Y-126181112D01*
X104971426Y-126181108D01*
X104971429Y-126181106D01*
X105096368Y-126009140D01*
X105096367Y-126009140D01*
X105096371Y-126009136D01*
X105192877Y-125819732D01*
X105258566Y-125617563D01*
X105291820Y-125407607D01*
X105291820Y-125195033D01*
X105258566Y-124985077D01*
X105192877Y-124782908D01*
X105171053Y-124740075D01*
X105148053Y-124694934D01*
X105148052Y-124694933D01*
X105132138Y-124663702D01*
X105096371Y-124593504D01*
X105088343Y-124582454D01*
X104971429Y-124421533D01*
X104821106Y-124271210D01*
X104649140Y-124146271D01*
X104459734Y-124049764D01*
X104459733Y-124049763D01*
X104459732Y-124049763D01*
X104257563Y-123984074D01*
X104257561Y-123984073D01*
X104257560Y-123984073D01*
X104096277Y-123958528D01*
X104047607Y-123950820D01*
X103835033Y-123950820D01*
X103786362Y-123958528D01*
X103625080Y-123984073D01*
X103422905Y-124049764D01*
X103233499Y-124146271D01*
X103061533Y-124271210D01*
X102911210Y-124421533D01*
X102786271Y-124593499D01*
X102689764Y-124782905D01*
X102624073Y-124985080D01*
X102599941Y-125137445D01*
X102590820Y-125195033D01*
X101491868Y-125195033D01*
X101490262Y-123765013D01*
X117480000Y-123765013D01*
X117480000Y-124190000D01*
X118299670Y-124190000D01*
X118279925Y-124209745D01*
X118230556Y-124295255D01*
X118205000Y-124390630D01*
X118205000Y-124489370D01*
X118230556Y-124584745D01*
X118279925Y-124670255D01*
X118299670Y-124690000D01*
X117480001Y-124690000D01*
X117480001Y-125114986D01*
X117490494Y-125217697D01*
X117545641Y-125384119D01*
X117545643Y-125384124D01*
X117637684Y-125533345D01*
X117761654Y-125657315D01*
X117910875Y-125749356D01*
X117910880Y-125749358D01*
X118077302Y-125804505D01*
X118077309Y-125804506D01*
X118180019Y-125814999D01*
X118329999Y-125814999D01*
X118330000Y-125814998D01*
X118330000Y-124720330D01*
X118349745Y-124740075D01*
X118435255Y-124789444D01*
X118530630Y-124815000D01*
X118629370Y-124815000D01*
X118724745Y-124789444D01*
X118810255Y-124740075D01*
X118830000Y-124720330D01*
X118830000Y-125814999D01*
X118979972Y-125814999D01*
X118979986Y-125814998D01*
X119082697Y-125804505D01*
X119249119Y-125749358D01*
X119249124Y-125749356D01*
X119398345Y-125657315D01*
X119522315Y-125533345D01*
X119561945Y-125469094D01*
X119613893Y-125422368D01*
X119682855Y-125411145D01*
X119746937Y-125438988D01*
X119755166Y-125446508D01*
X119863072Y-125554414D01*
X120003212Y-125656232D01*
X120157555Y-125734873D01*
X120322299Y-125788402D01*
X120493389Y-125815500D01*
X120493390Y-125815500D01*
X120666610Y-125815500D01*
X120666611Y-125815500D01*
X120837701Y-125788402D01*
X121002445Y-125734873D01*
X121156788Y-125656232D01*
X121296928Y-125554414D01*
X121419414Y-125431928D01*
X121521232Y-125291788D01*
X121570531Y-125195033D01*
X134640820Y-125195033D01*
X134640820Y-125407607D01*
X134645790Y-125438988D01*
X134670746Y-125596555D01*
X134674074Y-125617563D01*
X134734815Y-125804505D01*
X134739764Y-125819734D01*
X134836271Y-126009140D01*
X134961210Y-126181106D01*
X135111533Y-126331429D01*
X135283499Y-126456368D01*
X135283501Y-126456369D01*
X135283504Y-126456371D01*
X135472908Y-126552877D01*
X135675077Y-126618566D01*
X135885033Y-126651820D01*
X135885034Y-126651820D01*
X136097606Y-126651820D01*
X136097607Y-126651820D01*
X136307563Y-126618566D01*
X136509732Y-126552877D01*
X136699136Y-126456371D01*
X136765492Y-126408161D01*
X136871106Y-126331429D01*
X136871108Y-126331426D01*
X136871112Y-126331424D01*
X137021424Y-126181112D01*
X137021426Y-126181108D01*
X137021429Y-126181106D01*
X137146368Y-126009140D01*
X137146367Y-126009140D01*
X137146371Y-126009136D01*
X137242877Y-125819732D01*
X137308566Y-125617563D01*
X137341820Y-125407607D01*
X137341820Y-125195033D01*
X137308566Y-124985077D01*
X137242877Y-124782908D01*
X137146371Y-124593504D01*
X137146369Y-124593501D01*
X137146368Y-124593499D01*
X137021429Y-124421533D01*
X136871106Y-124271210D01*
X136699140Y-124146271D01*
X136509734Y-124049764D01*
X136509733Y-124049763D01*
X136509732Y-124049763D01*
X136307563Y-123984074D01*
X136307561Y-123984073D01*
X136307560Y-123984073D01*
X136146277Y-123958528D01*
X136097607Y-123950820D01*
X135885033Y-123950820D01*
X135836362Y-123958528D01*
X135675080Y-123984073D01*
X135472905Y-124049764D01*
X135283499Y-124146271D01*
X135111533Y-124271210D01*
X134961210Y-124421533D01*
X134836271Y-124593499D01*
X134739764Y-124782905D01*
X134674073Y-124985080D01*
X134649941Y-125137445D01*
X134640820Y-125195033D01*
X121570531Y-125195033D01*
X121599873Y-125137445D01*
X121603532Y-125126181D01*
X121642968Y-125068508D01*
X121707326Y-125041308D01*
X121721463Y-125040500D01*
X123262654Y-125040500D01*
X123294747Y-125044724D01*
X123390943Y-125070501D01*
X123390945Y-125070501D01*
X123549055Y-125070501D01*
X123549057Y-125070501D01*
X123701785Y-125029577D01*
X123838716Y-124950519D01*
X126430520Y-122358716D01*
X126509577Y-122221784D01*
X126550501Y-122069057D01*
X126550501Y-121910942D01*
X126550501Y-121903347D01*
X126550500Y-121903329D01*
X126550500Y-114940945D01*
X126550500Y-114940943D01*
X126509577Y-114788216D01*
X126509577Y-114788215D01*
X126509577Y-114788214D01*
X126480639Y-114738095D01*
X126480637Y-114738092D01*
X126430520Y-114651284D01*
X126318716Y-114539480D01*
X126318715Y-114539479D01*
X126314385Y-114535149D01*
X126314374Y-114535139D01*
X124665397Y-112886162D01*
X124631912Y-112824839D01*
X124635148Y-112760161D01*
X124639797Y-112745854D01*
X124671820Y-112543672D01*
X124671820Y-112338968D01*
X124639797Y-112136785D01*
X124586674Y-111973291D01*
X124576540Y-111942101D01*
X124576538Y-111942098D01*
X124576538Y-111942096D01*
X124537001Y-111864501D01*
X124483607Y-111759710D01*
X124445487Y-111707242D01*
X124363291Y-111594106D01*
X124218533Y-111449348D01*
X124052933Y-111329035D01*
X124052932Y-111329034D01*
X124052930Y-111329033D01*
X123967957Y-111285737D01*
X123870543Y-111236101D01*
X123675854Y-111172842D01*
X123501315Y-111145198D01*
X123473672Y-111140820D01*
X123268968Y-111140820D01*
X123244649Y-111144671D01*
X123066785Y-111172842D01*
X122872096Y-111236101D01*
X122689706Y-111329035D01*
X122524106Y-111449348D01*
X122379348Y-111594106D01*
X122259035Y-111759706D01*
X122166101Y-111942096D01*
X122102842Y-112136785D01*
X122070820Y-112338968D01*
X122070820Y-112543671D01*
X122102842Y-112745854D01*
X122166101Y-112940543D01*
X122212681Y-113031959D01*
X122248277Y-113101821D01*
X122259035Y-113122933D01*
X122379348Y-113288533D01*
X122524106Y-113433291D01*
X122679069Y-113545876D01*
X122689710Y-113553607D01*
X122805927Y-113612823D01*
X122872096Y-113646538D01*
X122872098Y-113646538D01*
X122872101Y-113646540D01*
X122976457Y-113680447D01*
X123066785Y-113709797D01*
X123167877Y-113725808D01*
X123268968Y-113741820D01*
X123268969Y-113741820D01*
X123473671Y-113741820D01*
X123473672Y-113741820D01*
X123675854Y-113709797D01*
X123690162Y-113705147D01*
X123760002Y-113703151D01*
X123816162Y-113735397D01*
X125313181Y-115232416D01*
X125346666Y-115293739D01*
X125349500Y-115320097D01*
X125349500Y-121689902D01*
X125329815Y-121756941D01*
X125313181Y-121777583D01*
X123287584Y-123803181D01*
X123226261Y-123836666D01*
X123199903Y-123839500D01*
X121721463Y-123839500D01*
X121654424Y-123819815D01*
X121608669Y-123767011D01*
X121603537Y-123753831D01*
X121599873Y-123742555D01*
X121521232Y-123588212D01*
X121419414Y-123448072D01*
X121296928Y-123325586D01*
X121156788Y-123223768D01*
X121002445Y-123145127D01*
X120837701Y-123091598D01*
X120837699Y-123091597D01*
X120837698Y-123091597D01*
X120706271Y-123070781D01*
X120666611Y-123064500D01*
X120493389Y-123064500D01*
X120453728Y-123070781D01*
X120322302Y-123091597D01*
X120157552Y-123145128D01*
X120003211Y-123223768D01*
X119863073Y-123325585D01*
X119755166Y-123433492D01*
X119693843Y-123466976D01*
X119624151Y-123461992D01*
X119568218Y-123420120D01*
X119561946Y-123410906D01*
X119522317Y-123346656D01*
X119398345Y-123222684D01*
X119249124Y-123130643D01*
X119249119Y-123130641D01*
X119082697Y-123075494D01*
X119082690Y-123075493D01*
X118979986Y-123065000D01*
X118830000Y-123065000D01*
X118830000Y-124159670D01*
X118810255Y-124139925D01*
X118724745Y-124090556D01*
X118629370Y-124065000D01*
X118530630Y-124065000D01*
X118435255Y-124090556D01*
X118349745Y-124139925D01*
X118330000Y-124159670D01*
X118330000Y-123065000D01*
X118180027Y-123065000D01*
X118180012Y-123065001D01*
X118077302Y-123075494D01*
X117910880Y-123130641D01*
X117910875Y-123130643D01*
X117761654Y-123222684D01*
X117637684Y-123346654D01*
X117545643Y-123495875D01*
X117545641Y-123495880D01*
X117490494Y-123662302D01*
X117490493Y-123662309D01*
X117480000Y-123765013D01*
X101490262Y-123765013D01*
X101485203Y-119261820D01*
X101484902Y-118993674D01*
X101483627Y-117859002D01*
X115501320Y-117859002D01*
X115501320Y-118063637D01*
X115533329Y-118265737D01*
X115596564Y-118460351D01*
X115689461Y-118642670D01*
X115689467Y-118642679D01*
X115721843Y-118687241D01*
X115721844Y-118687242D01*
X116401320Y-118007766D01*
X116401320Y-118013981D01*
X116428579Y-118115714D01*
X116481240Y-118206926D01*
X116555714Y-118281400D01*
X116646926Y-118334061D01*
X116748659Y-118361320D01*
X116754873Y-118361320D01*
X116075396Y-119040794D01*
X116119970Y-119073179D01*
X116302288Y-119166075D01*
X116496902Y-119229310D01*
X116699003Y-119261320D01*
X116903637Y-119261320D01*
X117105737Y-119229310D01*
X117300351Y-119166075D01*
X117482669Y-119073179D01*
X117527241Y-119040794D01*
X116847767Y-118361320D01*
X116853981Y-118361320D01*
X116955714Y-118334061D01*
X117046926Y-118281400D01*
X117121400Y-118206926D01*
X117174061Y-118115714D01*
X117201320Y-118013981D01*
X117201320Y-118007767D01*
X117880794Y-118687241D01*
X117913179Y-118642669D01*
X118006075Y-118460351D01*
X118069310Y-118265737D01*
X118101320Y-118063637D01*
X118101320Y-117859002D01*
X118101315Y-117858968D01*
X120500820Y-117858968D01*
X120500820Y-118063671D01*
X120532842Y-118265854D01*
X120596101Y-118460543D01*
X120660011Y-118585973D01*
X120688905Y-118642679D01*
X120689035Y-118642933D01*
X120809348Y-118808533D01*
X120954106Y-118953291D01*
X121074546Y-119040794D01*
X121119710Y-119073607D01*
X121235927Y-119132823D01*
X121302096Y-119166538D01*
X121302098Y-119166538D01*
X121302101Y-119166540D01*
X121406457Y-119200447D01*
X121496785Y-119229797D01*
X121597877Y-119245808D01*
X121698968Y-119261820D01*
X121698969Y-119261820D01*
X121903671Y-119261820D01*
X121903672Y-119261820D01*
X122105854Y-119229797D01*
X122300539Y-119166540D01*
X122482930Y-119073607D01*
X122592949Y-118993674D01*
X122648533Y-118953291D01*
X122648535Y-118953288D01*
X122648539Y-118953286D01*
X122793286Y-118808539D01*
X122793288Y-118808535D01*
X122793291Y-118808533D01*
X122846052Y-118735910D01*
X122913607Y-118642930D01*
X123006540Y-118460539D01*
X123069797Y-118265854D01*
X123101820Y-118063672D01*
X123101820Y-117858968D01*
X123093577Y-117806926D01*
X123069797Y-117656785D01*
X123038778Y-117561320D01*
X123006540Y-117462101D01*
X123006538Y-117462098D01*
X123006538Y-117462096D01*
X122913739Y-117279970D01*
X122913607Y-117279710D01*
X122881412Y-117235397D01*
X122793291Y-117114106D01*
X122648533Y-116969348D01*
X122482933Y-116849035D01*
X122482932Y-116849034D01*
X122482930Y-116849033D01*
X122425973Y-116820011D01*
X122300543Y-116756101D01*
X122105854Y-116692842D01*
X121931315Y-116665198D01*
X121903672Y-116660820D01*
X121698968Y-116660820D01*
X121674649Y-116664671D01*
X121496785Y-116692842D01*
X121302096Y-116756101D01*
X121119706Y-116849035D01*
X120954106Y-116969348D01*
X120809348Y-117114106D01*
X120689035Y-117279706D01*
X120596101Y-117462096D01*
X120532842Y-117656785D01*
X120500820Y-117858968D01*
X118101315Y-117858968D01*
X118069310Y-117656902D01*
X118006075Y-117462288D01*
X117913179Y-117279970D01*
X117880794Y-117235397D01*
X117880794Y-117235396D01*
X117201320Y-117914871D01*
X117201320Y-117908659D01*
X117174061Y-117806926D01*
X117121400Y-117715714D01*
X117046926Y-117641240D01*
X116955714Y-117588579D01*
X116853981Y-117561320D01*
X116847766Y-117561320D01*
X117527242Y-116881844D01*
X117527241Y-116881843D01*
X117482679Y-116849467D01*
X117482670Y-116849461D01*
X117300351Y-116756564D01*
X117105737Y-116693329D01*
X116903637Y-116661320D01*
X116699003Y-116661320D01*
X116496902Y-116693329D01*
X116302288Y-116756564D01*
X116119964Y-116849463D01*
X116075397Y-116881843D01*
X116075397Y-116881844D01*
X116754874Y-117561320D01*
X116748659Y-117561320D01*
X116646926Y-117588579D01*
X116555714Y-117641240D01*
X116481240Y-117715714D01*
X116428579Y-117806926D01*
X116401320Y-117908659D01*
X116401320Y-117914873D01*
X115721844Y-117235397D01*
X115721843Y-117235397D01*
X115689463Y-117279964D01*
X115596564Y-117462288D01*
X115533329Y-117656902D01*
X115501320Y-117859002D01*
X101483627Y-117859002D01*
X101483622Y-117854275D01*
X101482583Y-116929242D01*
X101477656Y-112543671D01*
X101477426Y-112338968D01*
X115210820Y-112338968D01*
X115210820Y-112543671D01*
X115242842Y-112745854D01*
X115306101Y-112940543D01*
X115352681Y-113031959D01*
X115388277Y-113101821D01*
X115399035Y-113122933D01*
X115519348Y-113288533D01*
X115664106Y-113433291D01*
X115819069Y-113545876D01*
X115829710Y-113553607D01*
X115945927Y-113612823D01*
X116012096Y-113646538D01*
X116012098Y-113646538D01*
X116012101Y-113646540D01*
X116116457Y-113680447D01*
X116206785Y-113709797D01*
X116307877Y-113725808D01*
X116408968Y-113741820D01*
X116408969Y-113741820D01*
X116613671Y-113741820D01*
X116613672Y-113741820D01*
X116815854Y-113709797D01*
X117010539Y-113646540D01*
X117192930Y-113553607D01*
X117285910Y-113486052D01*
X117358533Y-113433291D01*
X117358535Y-113433288D01*
X117358539Y-113433286D01*
X117503286Y-113288539D01*
X117601807Y-113152935D01*
X117657136Y-113110269D01*
X117702125Y-113101820D01*
X118872011Y-113101820D01*
X118872027Y-113101821D01*
X118879623Y-113101821D01*
X119037734Y-113101821D01*
X119037737Y-113101821D01*
X119190465Y-113060897D01*
X119240584Y-113031959D01*
X119327396Y-112981840D01*
X119439200Y-112870036D01*
X119439200Y-112870034D01*
X119449408Y-112859827D01*
X119449409Y-112859824D01*
X121430266Y-110878968D01*
X129110820Y-110878968D01*
X129110820Y-111083671D01*
X129142842Y-111285854D01*
X129206101Y-111480543D01*
X129263963Y-111594101D01*
X129298905Y-111662679D01*
X129299035Y-111662933D01*
X129419348Y-111828533D01*
X129564106Y-111973291D01*
X129684546Y-112060794D01*
X129729710Y-112093607D01*
X129845927Y-112152823D01*
X129912096Y-112186538D01*
X129912098Y-112186538D01*
X129912101Y-112186540D01*
X130016457Y-112220447D01*
X130106785Y-112249797D01*
X130207877Y-112265808D01*
X130308968Y-112281820D01*
X130308969Y-112281820D01*
X130513671Y-112281820D01*
X130513672Y-112281820D01*
X130715854Y-112249797D01*
X130910539Y-112186540D01*
X131092930Y-112093607D01*
X131202949Y-112013674D01*
X131258533Y-111973291D01*
X131258535Y-111973288D01*
X131258539Y-111973286D01*
X131403286Y-111828539D01*
X131403288Y-111828535D01*
X131403291Y-111828533D01*
X131456052Y-111755910D01*
X131523607Y-111662930D01*
X131616540Y-111480539D01*
X131679797Y-111285854D01*
X131711820Y-111083672D01*
X131711820Y-110878968D01*
X131697161Y-110786415D01*
X131679797Y-110676785D01*
X131648778Y-110581320D01*
X131616540Y-110482101D01*
X131616538Y-110482098D01*
X131616538Y-110482096D01*
X131523739Y-110299970D01*
X131523607Y-110299710D01*
X131491412Y-110255397D01*
X131403291Y-110134106D01*
X131258533Y-109989348D01*
X131092933Y-109869035D01*
X131092932Y-109869034D01*
X131092930Y-109869033D01*
X131035973Y-109840011D01*
X130910543Y-109776101D01*
X130715854Y-109712842D01*
X130541315Y-109685198D01*
X130513672Y-109680820D01*
X130308968Y-109680820D01*
X130284649Y-109684671D01*
X130106785Y-109712842D01*
X129912096Y-109776101D01*
X129729706Y-109869035D01*
X129564106Y-109989348D01*
X129419348Y-110134106D01*
X129299035Y-110299706D01*
X129206101Y-110482096D01*
X129142842Y-110676785D01*
X129110820Y-110878968D01*
X121430266Y-110878968D01*
X128061097Y-104248139D01*
X128122420Y-104214654D01*
X128148778Y-104211820D01*
X129095682Y-104211820D01*
X129162721Y-104231505D01*
X129201219Y-104270721D01*
X129268608Y-104379976D01*
X129392664Y-104504032D01*
X129541986Y-104596134D01*
X129708523Y-104651319D01*
X129811311Y-104661820D01*
X131011328Y-104661819D01*
X131114117Y-104651319D01*
X131280654Y-104596134D01*
X131429976Y-104504032D01*
X131554032Y-104379976D01*
X131646134Y-104230654D01*
X131701319Y-104064117D01*
X131711820Y-103961329D01*
X131711819Y-102761312D01*
X131701319Y-102658523D01*
X131646134Y-102491986D01*
X131554032Y-102342664D01*
X131429976Y-102218608D01*
X131280654Y-102126506D01*
X131114117Y-102071321D01*
X131114115Y-102071320D01*
X131011330Y-102060820D01*
X129811318Y-102060820D01*
X129811301Y-102060821D01*
X129708523Y-102071320D01*
X129708520Y-102071321D01*
X129541988Y-102126505D01*
X129541983Y-102126507D01*
X129392662Y-102218609D01*
X129268609Y-102342662D01*
X129176507Y-102491983D01*
X129176506Y-102491986D01*
X129121321Y-102658523D01*
X129121321Y-102658524D01*
X129121320Y-102658524D01*
X129110820Y-102761303D01*
X129110820Y-102886820D01*
X129091135Y-102953859D01*
X129038331Y-102999614D01*
X128986820Y-103010820D01*
X127935350Y-103010820D01*
X127935334Y-103010819D01*
X127927738Y-103010819D01*
X127769623Y-103010819D01*
X127693259Y-103031281D01*
X127616894Y-103051743D01*
X127616889Y-103051746D01*
X127479970Y-103130795D01*
X127479962Y-103130801D01*
X118746264Y-111864501D01*
X118684941Y-111897986D01*
X118658583Y-111900820D01*
X117771494Y-111900820D01*
X117704455Y-111881135D01*
X117661009Y-111833115D01*
X117650921Y-111813317D01*
X117623607Y-111759710D01*
X117585487Y-111707242D01*
X117503291Y-111594106D01*
X117358533Y-111449348D01*
X117192933Y-111329035D01*
X117192932Y-111329034D01*
X117192930Y-111329033D01*
X117107957Y-111285737D01*
X117010543Y-111236101D01*
X116815854Y-111172842D01*
X116641315Y-111145198D01*
X116613672Y-111140820D01*
X116408968Y-111140820D01*
X116384649Y-111144671D01*
X116206785Y-111172842D01*
X116012096Y-111236101D01*
X115829706Y-111329035D01*
X115664106Y-111449348D01*
X115519348Y-111594106D01*
X115399035Y-111759706D01*
X115306101Y-111942096D01*
X115242842Y-112136785D01*
X115210820Y-112338968D01*
X101477426Y-112338968D01*
X101475786Y-110879002D01*
X108481320Y-110879002D01*
X108481320Y-111083637D01*
X108513329Y-111285737D01*
X108576564Y-111480351D01*
X108669461Y-111662670D01*
X108669467Y-111662679D01*
X108701843Y-111707241D01*
X108701844Y-111707242D01*
X109381320Y-111027766D01*
X109381320Y-111033981D01*
X109408579Y-111135714D01*
X109461240Y-111226926D01*
X109535714Y-111301400D01*
X109626926Y-111354061D01*
X109728659Y-111381320D01*
X109734873Y-111381320D01*
X109055396Y-112060794D01*
X109099970Y-112093179D01*
X109282288Y-112186075D01*
X109476902Y-112249310D01*
X109679003Y-112281320D01*
X109883637Y-112281320D01*
X110085737Y-112249310D01*
X110187746Y-112216165D01*
X110280351Y-112186075D01*
X110462669Y-112093179D01*
X110507241Y-112060794D01*
X109827767Y-111381320D01*
X109833981Y-111381320D01*
X109935714Y-111354061D01*
X110026926Y-111301400D01*
X110101400Y-111226926D01*
X110154061Y-111135714D01*
X110181320Y-111033981D01*
X110181320Y-111027767D01*
X110860794Y-111707241D01*
X110893179Y-111662669D01*
X110986075Y-111480351D01*
X111049310Y-111285737D01*
X111081320Y-111083637D01*
X111081320Y-110879002D01*
X111049310Y-110676902D01*
X110986075Y-110482288D01*
X110893179Y-110299970D01*
X110860794Y-110255397D01*
X110860794Y-110255396D01*
X110181320Y-110934871D01*
X110181320Y-110928659D01*
X110154061Y-110826926D01*
X110101400Y-110735714D01*
X110026926Y-110661240D01*
X109935714Y-110608579D01*
X109833981Y-110581320D01*
X109827766Y-110581320D01*
X110507242Y-109901844D01*
X110507241Y-109901843D01*
X110462679Y-109869467D01*
X110462670Y-109869461D01*
X110280351Y-109776564D01*
X110085737Y-109713329D01*
X109883637Y-109681320D01*
X109679003Y-109681320D01*
X109476902Y-109713329D01*
X109282288Y-109776564D01*
X109099964Y-109869463D01*
X109055397Y-109901843D01*
X109055397Y-109901844D01*
X109734874Y-110581320D01*
X109728659Y-110581320D01*
X109626926Y-110608579D01*
X109535714Y-110661240D01*
X109461240Y-110735714D01*
X109408579Y-110826926D01*
X109381320Y-110928659D01*
X109381320Y-110934873D01*
X108701844Y-110255397D01*
X108701843Y-110255397D01*
X108669463Y-110299964D01*
X108576564Y-110482288D01*
X108513329Y-110676902D01*
X108481320Y-110879002D01*
X101475786Y-110879002D01*
X101466667Y-102761303D01*
X108480820Y-102761303D01*
X108480820Y-103961321D01*
X108480821Y-103961338D01*
X108491320Y-104064116D01*
X108491321Y-104064119D01*
X108540265Y-104211820D01*
X108546506Y-104230654D01*
X108638608Y-104379976D01*
X108762664Y-104504032D01*
X108911986Y-104596134D01*
X109078523Y-104651319D01*
X109181311Y-104661820D01*
X110381328Y-104661819D01*
X110484117Y-104651319D01*
X110650654Y-104596134D01*
X110799976Y-104504032D01*
X110924032Y-104379976D01*
X111016134Y-104230654D01*
X111071319Y-104064117D01*
X111081820Y-103961329D01*
X111081819Y-102761312D01*
X111071319Y-102658523D01*
X111016134Y-102491986D01*
X110924032Y-102342664D01*
X110799976Y-102218608D01*
X110735709Y-102178968D01*
X115210820Y-102178968D01*
X115210820Y-102383671D01*
X115242842Y-102585854D01*
X115306101Y-102780543D01*
X115399035Y-102962933D01*
X115519348Y-103128533D01*
X115664106Y-103273291D01*
X115819069Y-103385876D01*
X115829710Y-103393607D01*
X115945927Y-103452823D01*
X116012096Y-103486538D01*
X116012098Y-103486538D01*
X116012101Y-103486540D01*
X116116457Y-103520447D01*
X116206785Y-103549797D01*
X116307877Y-103565808D01*
X116408968Y-103581820D01*
X116408969Y-103581820D01*
X116613671Y-103581820D01*
X116613672Y-103581820D01*
X116815854Y-103549797D01*
X117010539Y-103486540D01*
X117192930Y-103393607D01*
X117285910Y-103326052D01*
X117358533Y-103273291D01*
X117358535Y-103273288D01*
X117358539Y-103273286D01*
X117503286Y-103128539D01*
X117503288Y-103128535D01*
X117503291Y-103128533D01*
X117588813Y-103010820D01*
X117623607Y-102962930D01*
X117716540Y-102780539D01*
X117779797Y-102585854D01*
X117811820Y-102383672D01*
X117811820Y-102178968D01*
X122070820Y-102178968D01*
X122070820Y-102383671D01*
X122102842Y-102585854D01*
X122166101Y-102780543D01*
X122259035Y-102962933D01*
X122379348Y-103128533D01*
X122524106Y-103273291D01*
X122679069Y-103385876D01*
X122689710Y-103393607D01*
X122805927Y-103452823D01*
X122872096Y-103486538D01*
X122872098Y-103486538D01*
X122872101Y-103486540D01*
X122976457Y-103520447D01*
X123066785Y-103549797D01*
X123167877Y-103565808D01*
X123268968Y-103581820D01*
X123268969Y-103581820D01*
X123473671Y-103581820D01*
X123473672Y-103581820D01*
X123675854Y-103549797D01*
X123870539Y-103486540D01*
X124052930Y-103393607D01*
X124145910Y-103326052D01*
X124218533Y-103273291D01*
X124218535Y-103273288D01*
X124218539Y-103273286D01*
X124363286Y-103128539D01*
X124363288Y-103128535D01*
X124363291Y-103128533D01*
X124448813Y-103010820D01*
X124483607Y-102962930D01*
X124576540Y-102780539D01*
X124639797Y-102585854D01*
X124671820Y-102383672D01*
X124671820Y-102178968D01*
X124639797Y-101976786D01*
X124576540Y-101782101D01*
X124576538Y-101782098D01*
X124576538Y-101782096D01*
X124542823Y-101715927D01*
X124483607Y-101599710D01*
X124475876Y-101589069D01*
X124363291Y-101434106D01*
X124218533Y-101289348D01*
X124052933Y-101169035D01*
X124052932Y-101169034D01*
X124052930Y-101169033D01*
X123995973Y-101140011D01*
X123870543Y-101076101D01*
X123675854Y-101012842D01*
X123501315Y-100985198D01*
X123473672Y-100980820D01*
X123268968Y-100980820D01*
X123244649Y-100984671D01*
X123066785Y-101012842D01*
X122872096Y-101076101D01*
X122689706Y-101169035D01*
X122524106Y-101289348D01*
X122379348Y-101434106D01*
X122259035Y-101599706D01*
X122166101Y-101782096D01*
X122102842Y-101976785D01*
X122070820Y-102178968D01*
X117811820Y-102178968D01*
X117779797Y-101976786D01*
X117716540Y-101782101D01*
X117716538Y-101782098D01*
X117716538Y-101782096D01*
X117682823Y-101715927D01*
X117623607Y-101599710D01*
X117615876Y-101589069D01*
X117503291Y-101434106D01*
X117358533Y-101289348D01*
X117192933Y-101169035D01*
X117192932Y-101169034D01*
X117192930Y-101169033D01*
X117135973Y-101140011D01*
X117010543Y-101076101D01*
X116815854Y-101012842D01*
X116641315Y-100985198D01*
X116613672Y-100980820D01*
X116408968Y-100980820D01*
X116384649Y-100984671D01*
X116206785Y-101012842D01*
X116012096Y-101076101D01*
X115829706Y-101169035D01*
X115664106Y-101289348D01*
X115519348Y-101434106D01*
X115399035Y-101599706D01*
X115306101Y-101782096D01*
X115242842Y-101976785D01*
X115210820Y-102178968D01*
X110735709Y-102178968D01*
X110650654Y-102126506D01*
X110484117Y-102071321D01*
X110484115Y-102071320D01*
X110381330Y-102060820D01*
X109181318Y-102060820D01*
X109181301Y-102060821D01*
X109078523Y-102071320D01*
X109078520Y-102071321D01*
X108911988Y-102126505D01*
X108911983Y-102126507D01*
X108762662Y-102218609D01*
X108638609Y-102342662D01*
X108546507Y-102491983D01*
X108546506Y-102491986D01*
X108491321Y-102658523D01*
X108491321Y-102658524D01*
X108491320Y-102658524D01*
X108480820Y-102761303D01*
X101466667Y-102761303D01*
X101441824Y-80645117D01*
X101442050Y-80637501D01*
X101446226Y-80568479D01*
X101448249Y-80535033D01*
X102590820Y-80535033D01*
X102590820Y-80747606D01*
X102624073Y-80957559D01*
X102624073Y-80957561D01*
X102624074Y-80957563D01*
X102657579Y-81060681D01*
X102689764Y-81159734D01*
X102786271Y-81349140D01*
X102911210Y-81521106D01*
X103061533Y-81671429D01*
X103233499Y-81796368D01*
X103233501Y-81796369D01*
X103233504Y-81796371D01*
X103422908Y-81892877D01*
X103625077Y-81958566D01*
X103835033Y-81991820D01*
X103835034Y-81991820D01*
X104047606Y-81991820D01*
X104047607Y-81991820D01*
X104257563Y-81958566D01*
X104459732Y-81892877D01*
X104649136Y-81796371D01*
X104671109Y-81780406D01*
X104821106Y-81671429D01*
X104821108Y-81671426D01*
X104821112Y-81671424D01*
X104971424Y-81521112D01*
X104971426Y-81521108D01*
X104971429Y-81521106D01*
X105096368Y-81349140D01*
X105096367Y-81349140D01*
X105096371Y-81349136D01*
X105192877Y-81159732D01*
X105258566Y-80957563D01*
X105273708Y-80861959D01*
X110697500Y-80861959D01*
X110697500Y-81060680D01*
X110728587Y-81256957D01*
X110789993Y-81445949D01*
X110789994Y-81445952D01*
X110828291Y-81521112D01*
X110880213Y-81623014D01*
X110997019Y-81783784D01*
X111137536Y-81924301D01*
X111298306Y-82041107D01*
X111416832Y-82101499D01*
X111454780Y-82120835D01*
X111505576Y-82168810D01*
X111522371Y-82236631D01*
X111499833Y-82302766D01*
X111454780Y-82341805D01*
X111298305Y-82421533D01*
X111137533Y-82538341D01*
X110997021Y-82678853D01*
X110880213Y-82839625D01*
X110789994Y-83016687D01*
X110789993Y-83016690D01*
X110728587Y-83205682D01*
X110697500Y-83401959D01*
X110697500Y-83600680D01*
X110728587Y-83796957D01*
X110789993Y-83985949D01*
X110789994Y-83985952D01*
X110880076Y-84162745D01*
X110880213Y-84163014D01*
X110997019Y-84323784D01*
X111137536Y-84464301D01*
X111298306Y-84581107D01*
X111416832Y-84641499D01*
X111454780Y-84660835D01*
X111505576Y-84708810D01*
X111522371Y-84776631D01*
X111499833Y-84842766D01*
X111454780Y-84881805D01*
X111298305Y-84961533D01*
X111137533Y-85078341D01*
X110997021Y-85218853D01*
X110880213Y-85379625D01*
X110789994Y-85556687D01*
X110789993Y-85556690D01*
X110728587Y-85745682D01*
X110697500Y-85941959D01*
X110697500Y-86140680D01*
X110728587Y-86336957D01*
X110789993Y-86525949D01*
X110789994Y-86525952D01*
X110880213Y-86703014D01*
X110997019Y-86863784D01*
X111137536Y-87004301D01*
X111298306Y-87121107D01*
X111416832Y-87181499D01*
X111454780Y-87200835D01*
X111505576Y-87248810D01*
X111522371Y-87316631D01*
X111499833Y-87382766D01*
X111454780Y-87421805D01*
X111298305Y-87501533D01*
X111137533Y-87618341D01*
X110997021Y-87758853D01*
X110880213Y-87919625D01*
X110789994Y-88096687D01*
X110789993Y-88096690D01*
X110728587Y-88285682D01*
X110697500Y-88481959D01*
X110697500Y-88680680D01*
X110728587Y-88876957D01*
X110789993Y-89065949D01*
X110789994Y-89065952D01*
X110880213Y-89243014D01*
X110997019Y-89403784D01*
X111137536Y-89544301D01*
X111298306Y-89661107D01*
X111416832Y-89721499D01*
X111454780Y-89740835D01*
X111505576Y-89788810D01*
X111522371Y-89856631D01*
X111499833Y-89922766D01*
X111454780Y-89961805D01*
X111298305Y-90041533D01*
X111137533Y-90158341D01*
X110997021Y-90298853D01*
X110880213Y-90459625D01*
X110789994Y-90636687D01*
X110789993Y-90636690D01*
X110728587Y-90825682D01*
X110697500Y-91021959D01*
X110697500Y-91220680D01*
X110728587Y-91416957D01*
X110789993Y-91605949D01*
X110789994Y-91605952D01*
X110880213Y-91783014D01*
X110997019Y-91943784D01*
X111137536Y-92084301D01*
X111298306Y-92201107D01*
X111416832Y-92261499D01*
X111454780Y-92280835D01*
X111505576Y-92328810D01*
X111522371Y-92396631D01*
X111499833Y-92462766D01*
X111454780Y-92501805D01*
X111298305Y-92581533D01*
X111137533Y-92698341D01*
X110997021Y-92838853D01*
X110880213Y-92999625D01*
X110789994Y-93176687D01*
X110789993Y-93176690D01*
X110728587Y-93365682D01*
X110697500Y-93561959D01*
X110697500Y-93760680D01*
X110728587Y-93956957D01*
X110789993Y-94145949D01*
X110789994Y-94145952D01*
X110880213Y-94323014D01*
X110997019Y-94483784D01*
X111137536Y-94624301D01*
X111298306Y-94741107D01*
X111416832Y-94801499D01*
X111454780Y-94820835D01*
X111505576Y-94868810D01*
X111522371Y-94936631D01*
X111499833Y-95002766D01*
X111454780Y-95041805D01*
X111298305Y-95121533D01*
X111137533Y-95238341D01*
X110997021Y-95378853D01*
X110880213Y-95539625D01*
X110789994Y-95716687D01*
X110789993Y-95716690D01*
X110728587Y-95905682D01*
X110697500Y-96101959D01*
X110697500Y-96300680D01*
X110728587Y-96496957D01*
X110789993Y-96685949D01*
X110789994Y-96685952D01*
X110880213Y-96863014D01*
X110997019Y-97023784D01*
X111137536Y-97164301D01*
X111298306Y-97281107D01*
X111385149Y-97325355D01*
X111475367Y-97371325D01*
X111475370Y-97371326D01*
X111569866Y-97402029D01*
X111664364Y-97432733D01*
X111860639Y-97463820D01*
X111860640Y-97463820D01*
X112059360Y-97463820D01*
X112059361Y-97463820D01*
X112255636Y-97432733D01*
X112444632Y-97371325D01*
X112621694Y-97281107D01*
X112782464Y-97164301D01*
X112922981Y-97023784D01*
X113039787Y-96863014D01*
X113130005Y-96685952D01*
X113191413Y-96496956D01*
X113222500Y-96300681D01*
X113222500Y-96101959D01*
X113191413Y-95905684D01*
X113130005Y-95716688D01*
X113130005Y-95716687D01*
X113039786Y-95539625D01*
X112922981Y-95378856D01*
X112782464Y-95238339D01*
X112621694Y-95121533D01*
X112465218Y-95041804D01*
X112414423Y-94993830D01*
X112397628Y-94926009D01*
X112420165Y-94859874D01*
X112465218Y-94820835D01*
X112621694Y-94741107D01*
X112782464Y-94624301D01*
X112922981Y-94483784D01*
X113039787Y-94323014D01*
X113130005Y-94145952D01*
X113191413Y-93956956D01*
X113222500Y-93760681D01*
X113222500Y-93561959D01*
X113191413Y-93365684D01*
X113130005Y-93176688D01*
X113130005Y-93176687D01*
X113039786Y-92999625D01*
X112922981Y-92838856D01*
X112782464Y-92698339D01*
X112621694Y-92581533D01*
X112465218Y-92501804D01*
X112414423Y-92453830D01*
X112397628Y-92386009D01*
X112420165Y-92319874D01*
X112465218Y-92280835D01*
X112621694Y-92201107D01*
X112782464Y-92084301D01*
X112922981Y-91943784D01*
X113039787Y-91783014D01*
X113130005Y-91605952D01*
X113191413Y-91416956D01*
X113222500Y-91220681D01*
X113222500Y-91021959D01*
X113191413Y-90825684D01*
X113130005Y-90636688D01*
X113130005Y-90636687D01*
X113039786Y-90459625D01*
X112922981Y-90298856D01*
X112782464Y-90158339D01*
X112621694Y-90041533D01*
X112465218Y-89961804D01*
X112414423Y-89913830D01*
X112397628Y-89846009D01*
X112420165Y-89779874D01*
X112465218Y-89740835D01*
X112621694Y-89661107D01*
X112782464Y-89544301D01*
X112922981Y-89403784D01*
X113039787Y-89243014D01*
X113130005Y-89065952D01*
X113191413Y-88876956D01*
X113222500Y-88680681D01*
X113222500Y-88481959D01*
X113191413Y-88285684D01*
X113130005Y-88096688D01*
X113130005Y-88096687D01*
X113039786Y-87919625D01*
X112922981Y-87758856D01*
X112782464Y-87618339D01*
X112621694Y-87501533D01*
X112465218Y-87421804D01*
X112414423Y-87373830D01*
X112397628Y-87306009D01*
X112420165Y-87239874D01*
X112465218Y-87200835D01*
X112621694Y-87121107D01*
X112782464Y-87004301D01*
X112922981Y-86863784D01*
X113039787Y-86703014D01*
X113130005Y-86525952D01*
X113191413Y-86336956D01*
X113222500Y-86140681D01*
X113222500Y-85941959D01*
X113191413Y-85745684D01*
X113130005Y-85556688D01*
X113130005Y-85556687D01*
X113039786Y-85379625D01*
X112922981Y-85218856D01*
X112782464Y-85078339D01*
X112621694Y-84961533D01*
X112465218Y-84881804D01*
X112414423Y-84833830D01*
X112397628Y-84766009D01*
X112420165Y-84699874D01*
X112465218Y-84660835D01*
X112621694Y-84581107D01*
X112782464Y-84464301D01*
X112922981Y-84323784D01*
X113039787Y-84163014D01*
X113130005Y-83985952D01*
X113191413Y-83796956D01*
X113222500Y-83600681D01*
X113222500Y-83401959D01*
X113191413Y-83205684D01*
X113130005Y-83016688D01*
X113130005Y-83016687D01*
X113084035Y-82926469D01*
X113039787Y-82839626D01*
X112922981Y-82678856D01*
X112782464Y-82538339D01*
X112621694Y-82421533D01*
X112465218Y-82341804D01*
X112414423Y-82293830D01*
X112397628Y-82226009D01*
X112420165Y-82159874D01*
X112465218Y-82120835D01*
X112621694Y-82041107D01*
X112782464Y-81924301D01*
X112922981Y-81783784D01*
X113039787Y-81623014D01*
X113130005Y-81445952D01*
X113191413Y-81256956D01*
X113222500Y-81060681D01*
X113222500Y-80861959D01*
X125937500Y-80861959D01*
X125937500Y-81060680D01*
X125968587Y-81256957D01*
X126029993Y-81445949D01*
X126029994Y-81445952D01*
X126068291Y-81521112D01*
X126120213Y-81623014D01*
X126237019Y-81783784D01*
X126377536Y-81924301D01*
X126538306Y-82041107D01*
X126695332Y-82121116D01*
X126746127Y-82169089D01*
X126762922Y-82236910D01*
X126740385Y-82303045D01*
X126695332Y-82342084D01*
X126538566Y-82421961D01*
X126501283Y-82449049D01*
X126501282Y-82449050D01*
X127115906Y-83063672D01*
X127028429Y-83087112D01*
X126927070Y-83145631D01*
X126844311Y-83228390D01*
X126785792Y-83329749D01*
X126762352Y-83417225D01*
X126147730Y-82802602D01*
X126147729Y-82802603D01*
X126120643Y-82839884D01*
X126030457Y-83016882D01*
X125969075Y-83205796D01*
X125969075Y-83205799D01*
X125938000Y-83401998D01*
X125938000Y-83600641D01*
X125969075Y-83796840D01*
X125969075Y-83796843D01*
X126030457Y-83985757D01*
X126120641Y-84162752D01*
X126147730Y-84200035D01*
X126147731Y-84200036D01*
X126762352Y-83585414D01*
X126785792Y-83672891D01*
X126844311Y-83774250D01*
X126927070Y-83857009D01*
X127028429Y-83915528D01*
X127115905Y-83938967D01*
X126501283Y-84553588D01*
X126501283Y-84553589D01*
X126538567Y-84580678D01*
X126695331Y-84660554D01*
X126746127Y-84708529D01*
X126762922Y-84776350D01*
X126740384Y-84842485D01*
X126695331Y-84881524D01*
X126538305Y-84961533D01*
X126377533Y-85078341D01*
X126237021Y-85218853D01*
X126120213Y-85379625D01*
X126029994Y-85556687D01*
X126029993Y-85556690D01*
X125968587Y-85745682D01*
X125937500Y-85941959D01*
X125937500Y-86140680D01*
X125968587Y-86336957D01*
X126029993Y-86525949D01*
X126029994Y-86525952D01*
X126120213Y-86703014D01*
X126237019Y-86863784D01*
X126377536Y-87004301D01*
X126538306Y-87121107D01*
X126656832Y-87181499D01*
X126694780Y-87200835D01*
X126745576Y-87248810D01*
X126762371Y-87316631D01*
X126739833Y-87382766D01*
X126694780Y-87421805D01*
X126538305Y-87501533D01*
X126377533Y-87618341D01*
X126237021Y-87758853D01*
X126120213Y-87919625D01*
X126029994Y-88096687D01*
X126029993Y-88096690D01*
X125968587Y-88285682D01*
X125937500Y-88481959D01*
X125937500Y-88680680D01*
X125968587Y-88876957D01*
X126029993Y-89065949D01*
X126029994Y-89065952D01*
X126120213Y-89243014D01*
X126237019Y-89403784D01*
X126377536Y-89544301D01*
X126538306Y-89661107D01*
X126656832Y-89721499D01*
X126694780Y-89740835D01*
X126745576Y-89788810D01*
X126762371Y-89856631D01*
X126739833Y-89922766D01*
X126694780Y-89961805D01*
X126538305Y-90041533D01*
X126377533Y-90158341D01*
X126237021Y-90298853D01*
X126120213Y-90459625D01*
X126029994Y-90636687D01*
X126029993Y-90636690D01*
X125968587Y-90825682D01*
X125937500Y-91021959D01*
X125937500Y-91220680D01*
X125968587Y-91416957D01*
X126029993Y-91605949D01*
X126029994Y-91605952D01*
X126120213Y-91783014D01*
X126237019Y-91943784D01*
X126377536Y-92084301D01*
X126538306Y-92201107D01*
X126656832Y-92261499D01*
X126694780Y-92280835D01*
X126745576Y-92328810D01*
X126762371Y-92396631D01*
X126739833Y-92462766D01*
X126694780Y-92501805D01*
X126538305Y-92581533D01*
X126377533Y-92698341D01*
X126237021Y-92838853D01*
X126120213Y-92999625D01*
X126029994Y-93176687D01*
X126029993Y-93176690D01*
X125968587Y-93365682D01*
X125937500Y-93561959D01*
X125937500Y-93760680D01*
X125968587Y-93956957D01*
X126029993Y-94145949D01*
X126029994Y-94145952D01*
X126120213Y-94323014D01*
X126237019Y-94483784D01*
X126377536Y-94624301D01*
X126538306Y-94741107D01*
X126656832Y-94801499D01*
X126694780Y-94820835D01*
X126745576Y-94868810D01*
X126762371Y-94936631D01*
X126739833Y-95002766D01*
X126694780Y-95041805D01*
X126538305Y-95121533D01*
X126377533Y-95238341D01*
X126237021Y-95378853D01*
X126120213Y-95539625D01*
X126029994Y-95716687D01*
X126029993Y-95716690D01*
X125968587Y-95905682D01*
X125937500Y-96101959D01*
X125937500Y-96300680D01*
X125968587Y-96496957D01*
X126029993Y-96685949D01*
X126029994Y-96685952D01*
X126120213Y-96863014D01*
X126237019Y-97023784D01*
X126377536Y-97164301D01*
X126538306Y-97281107D01*
X126625149Y-97325355D01*
X126715367Y-97371325D01*
X126715370Y-97371326D01*
X126809866Y-97402029D01*
X126904364Y-97432733D01*
X127100639Y-97463820D01*
X127100640Y-97463820D01*
X127299360Y-97463820D01*
X127299361Y-97463820D01*
X127495636Y-97432733D01*
X127684632Y-97371325D01*
X127861694Y-97281107D01*
X128022464Y-97164301D01*
X128162981Y-97023784D01*
X128279787Y-96863014D01*
X128370005Y-96685952D01*
X128431413Y-96496956D01*
X128462500Y-96300681D01*
X128462500Y-96101959D01*
X128431413Y-95905684D01*
X128370005Y-95716688D01*
X128370005Y-95716687D01*
X128279786Y-95539625D01*
X128162981Y-95378856D01*
X128022464Y-95238339D01*
X127861694Y-95121533D01*
X127705218Y-95041804D01*
X127654423Y-94993830D01*
X127637628Y-94926009D01*
X127660165Y-94859874D01*
X127705218Y-94820835D01*
X127861694Y-94741107D01*
X128022464Y-94624301D01*
X128162981Y-94483784D01*
X128279787Y-94323014D01*
X128370005Y-94145952D01*
X128431413Y-93956956D01*
X128462500Y-93760681D01*
X128462500Y-93561959D01*
X128431413Y-93365684D01*
X128370005Y-93176688D01*
X128370005Y-93176687D01*
X128279786Y-92999625D01*
X128162981Y-92838856D01*
X128022464Y-92698339D01*
X127861694Y-92581533D01*
X127705218Y-92501804D01*
X127654423Y-92453830D01*
X127637628Y-92386009D01*
X127660165Y-92319874D01*
X127705218Y-92280835D01*
X127861694Y-92201107D01*
X128022464Y-92084301D01*
X128162981Y-91943784D01*
X128279787Y-91783014D01*
X128370005Y-91605952D01*
X128431413Y-91416956D01*
X128462500Y-91220681D01*
X128462500Y-91021959D01*
X128431413Y-90825684D01*
X128370005Y-90636688D01*
X128370005Y-90636687D01*
X128279786Y-90459625D01*
X128162981Y-90298856D01*
X128022464Y-90158339D01*
X127861694Y-90041533D01*
X127705218Y-89961804D01*
X127654423Y-89913830D01*
X127637628Y-89846009D01*
X127660165Y-89779874D01*
X127705218Y-89740835D01*
X127861694Y-89661107D01*
X128022464Y-89544301D01*
X128162981Y-89403784D01*
X128279787Y-89243014D01*
X128370005Y-89065952D01*
X128431413Y-88876956D01*
X128462500Y-88680681D01*
X128462500Y-88481959D01*
X128431413Y-88285684D01*
X128370005Y-88096688D01*
X128370005Y-88096687D01*
X128279786Y-87919625D01*
X128162981Y-87758856D01*
X128022464Y-87618339D01*
X127861694Y-87501533D01*
X127705218Y-87421804D01*
X127654423Y-87373830D01*
X127637628Y-87306009D01*
X127660165Y-87239874D01*
X127705218Y-87200835D01*
X127861694Y-87121107D01*
X128022464Y-87004301D01*
X128162981Y-86863784D01*
X128279787Y-86703014D01*
X128370005Y-86525952D01*
X128431413Y-86336956D01*
X128462500Y-86140681D01*
X128462500Y-85941959D01*
X128431413Y-85745684D01*
X128370005Y-85556688D01*
X128370005Y-85556687D01*
X128279786Y-85379625D01*
X128162981Y-85218856D01*
X128022464Y-85078339D01*
X127861694Y-84961533D01*
X127704667Y-84881523D01*
X127653872Y-84833549D01*
X127637077Y-84765728D01*
X127659614Y-84699593D01*
X127704669Y-84660554D01*
X127861422Y-84580684D01*
X127898716Y-84553588D01*
X127284095Y-83938967D01*
X127371571Y-83915528D01*
X127472930Y-83857009D01*
X127555689Y-83774250D01*
X127614208Y-83672891D01*
X127637647Y-83585414D01*
X128252268Y-84200035D01*
X128279362Y-84162745D01*
X128369542Y-83985757D01*
X128430924Y-83796843D01*
X128430924Y-83796840D01*
X128462000Y-83600641D01*
X128462000Y-83401998D01*
X128430924Y-83205799D01*
X128430924Y-83205796D01*
X128369542Y-83016882D01*
X128279358Y-82839887D01*
X128252268Y-82802603D01*
X127637647Y-83417224D01*
X127614208Y-83329749D01*
X127555689Y-83228390D01*
X127472930Y-83145631D01*
X127371571Y-83087112D01*
X127284094Y-83063672D01*
X127898716Y-82449051D01*
X127898715Y-82449050D01*
X127861432Y-82421961D01*
X127704668Y-82342085D01*
X127653872Y-82294110D01*
X127637077Y-82226289D01*
X127659615Y-82160154D01*
X127704667Y-82121116D01*
X127861694Y-82041107D01*
X128022464Y-81924301D01*
X128162981Y-81783784D01*
X128279787Y-81623014D01*
X128370005Y-81445952D01*
X128431413Y-81256956D01*
X128462500Y-81060681D01*
X128462500Y-80861959D01*
X128431413Y-80665684D01*
X128419128Y-80627875D01*
X128399830Y-80568479D01*
X128388963Y-80535033D01*
X134640820Y-80535033D01*
X134640820Y-80747606D01*
X134674073Y-80957559D01*
X134674073Y-80957561D01*
X134674074Y-80957563D01*
X134707579Y-81060681D01*
X134739764Y-81159734D01*
X134836271Y-81349140D01*
X134961210Y-81521106D01*
X135111533Y-81671429D01*
X135283499Y-81796368D01*
X135283501Y-81796369D01*
X135283504Y-81796371D01*
X135472908Y-81892877D01*
X135675077Y-81958566D01*
X135885033Y-81991820D01*
X135885034Y-81991820D01*
X136097606Y-81991820D01*
X136097607Y-81991820D01*
X136307563Y-81958566D01*
X136509732Y-81892877D01*
X136699136Y-81796371D01*
X136721109Y-81780406D01*
X136871106Y-81671429D01*
X136871108Y-81671426D01*
X136871112Y-81671424D01*
X137021424Y-81521112D01*
X137021426Y-81521108D01*
X137021429Y-81521106D01*
X137146368Y-81349140D01*
X137146367Y-81349140D01*
X137146371Y-81349136D01*
X137242877Y-81159732D01*
X137308566Y-80957563D01*
X137341820Y-80747607D01*
X137341820Y-80535033D01*
X137308566Y-80325077D01*
X137242877Y-80122908D01*
X137146371Y-79933504D01*
X137146369Y-79933501D01*
X137146368Y-79933499D01*
X137021429Y-79761533D01*
X136871106Y-79611210D01*
X136699140Y-79486271D01*
X136509734Y-79389764D01*
X136509733Y-79389763D01*
X136509732Y-79389763D01*
X136307563Y-79324074D01*
X136307561Y-79324073D01*
X136307560Y-79324073D01*
X136146277Y-79298528D01*
X136097607Y-79290820D01*
X135885033Y-79290820D01*
X135836362Y-79298528D01*
X135675080Y-79324073D01*
X135472905Y-79389764D01*
X135283499Y-79486271D01*
X135111533Y-79611210D01*
X134961210Y-79761533D01*
X134836271Y-79933499D01*
X134739764Y-80122905D01*
X134674073Y-80325080D01*
X134640820Y-80535033D01*
X128388963Y-80535033D01*
X128370006Y-80476690D01*
X128370005Y-80476687D01*
X128304193Y-80347525D01*
X128279787Y-80299626D01*
X128162981Y-80138856D01*
X128022464Y-79998339D01*
X127861694Y-79881533D01*
X127684632Y-79791314D01*
X127684629Y-79791313D01*
X127495637Y-79729907D01*
X127397498Y-79714363D01*
X127299361Y-79698820D01*
X127100639Y-79698820D01*
X127035214Y-79709182D01*
X126904362Y-79729907D01*
X126715370Y-79791313D01*
X126715367Y-79791314D01*
X126538305Y-79881533D01*
X126377533Y-79998341D01*
X126237021Y-80138853D01*
X126120213Y-80299625D01*
X126029994Y-80476687D01*
X126029993Y-80476690D01*
X125968587Y-80665682D01*
X125937500Y-80861959D01*
X113222500Y-80861959D01*
X113191413Y-80665684D01*
X113130005Y-80476688D01*
X113130005Y-80476687D01*
X113064193Y-80347525D01*
X113039787Y-80299626D01*
X112922981Y-80138856D01*
X112782464Y-79998339D01*
X112621694Y-79881533D01*
X112444632Y-79791314D01*
X112444629Y-79791313D01*
X112255637Y-79729907D01*
X112157498Y-79714363D01*
X112059361Y-79698820D01*
X111860639Y-79698820D01*
X111795214Y-79709182D01*
X111664362Y-79729907D01*
X111475370Y-79791313D01*
X111475367Y-79791314D01*
X111298305Y-79881533D01*
X111137533Y-79998341D01*
X110997021Y-80138853D01*
X110880213Y-80299625D01*
X110789994Y-80476687D01*
X110789993Y-80476690D01*
X110728587Y-80665682D01*
X110697500Y-80861959D01*
X105273708Y-80861959D01*
X105291820Y-80747607D01*
X105291820Y-80535033D01*
X105258566Y-80325077D01*
X105192877Y-80122908D01*
X105096371Y-79933504D01*
X105096369Y-79933501D01*
X105096368Y-79933499D01*
X104971429Y-79761533D01*
X104821106Y-79611210D01*
X104649140Y-79486271D01*
X104459734Y-79389764D01*
X104459733Y-79389763D01*
X104459732Y-79389763D01*
X104257563Y-79324074D01*
X104257561Y-79324073D01*
X104257560Y-79324073D01*
X104096277Y-79298528D01*
X104047607Y-79290820D01*
X103835033Y-79290820D01*
X103786362Y-79298528D01*
X103625080Y-79324073D01*
X103422905Y-79389764D01*
X103233499Y-79486271D01*
X103061533Y-79611210D01*
X102911210Y-79761533D01*
X102786271Y-79933499D01*
X102689764Y-80122905D01*
X102624073Y-80325080D01*
X102590820Y-80535033D01*
X101448249Y-80535033D01*
X101459591Y-80347522D01*
X101461396Y-80332660D01*
X101513100Y-80050522D01*
X101516684Y-80035984D01*
X101548618Y-79933504D01*
X101602019Y-79762132D01*
X101607317Y-79748162D01*
X101725047Y-79486578D01*
X101732000Y-79473332D01*
X101822229Y-79324074D01*
X101880395Y-79227854D01*
X101888887Y-79215550D01*
X102065801Y-78989737D01*
X102075716Y-78978546D01*
X102278546Y-78775716D01*
X102289737Y-78765801D01*
X102515550Y-78588887D01*
X102527854Y-78580395D01*
X102773332Y-78432000D01*
X102786578Y-78425047D01*
X103048162Y-78307317D01*
X103062132Y-78302019D01*
X103335988Y-78216682D01*
X103350518Y-78213100D01*
X103632664Y-78161395D01*
X103647521Y-78159591D01*
X103937584Y-78142046D01*
X103945071Y-78141820D01*
X104007212Y-78141820D01*
X135925428Y-78141820D01*
X135987569Y-78141820D01*
X135995056Y-78142046D01*
G37*
%TD.AperFunction*%
%TD*%
M02*
